<svg xmlns="http://www.w3.org/2000/svg" fill-rule="evenodd" stroke-linejoin="round" stroke-miterlimit="2" clip-rule="evenodd" viewBox="0 0 3000 3000"><path fill="none" d="M0 0h3000v3000H0z"/><path fill="#1b2e35" d="M150.196 2269.22c-75.016-84.057-108.783-161.889-113.28-233.755-5.239-83.734 29.273-159.269 84.087-226.945 55.106-68.037 130.723-128.124 207.437-180.572 227.919-155.825 604.526-239.665 960.52-241.397 244.946-1.192 492.12 38.5 727.357 104.647a2.75 2.75 0 1 0 1.489-5.295c-235.727-66.285-483.417-106.047-728.873-104.853-357.151 1.738-734.938 86.025-963.598 242.357-77.157 52.752-153.181 113.221-208.606 181.651-55.718 68.792-90.628 145.636-85.303 230.75 4.559 72.86 38.613 151.855 114.666 237.074a2.75 2.75 0 0 0 4.104-3.662Z" class="color1b2e35 svgShape"/><path fill="#e4e9ff" d="M848.6 1198.24h593.144v407.141H848.6z" class="colore4e9ff svgShape"/><path fill="#aabbff" d="M1915.02 507.576c0-24.901-20.186-45.087-45.087-45.087h-860.511c-24.901 0-45.087 20.186-45.087 45.087v500.903c0 24.901 20.186 45.087 45.087 45.087h860.511c24.901 0 45.087-20.186 45.087-45.087V507.576Z" class="colorabf svgShape"/><path fill="#e4e9ff" d="M2230.6 1536.59c-115.195-62.281-237.244-112.568-362.541-157.172v244.698l362.541 157.172V1536.59Z" class="colore4e9ff svgShape"/><path fill="#aabbff" d="M2230.6 1536.59c-115.195-62.281-237.244-112.568-362.541-157.172v73.635l362.541 154.91v-71.373Z" class="colorabf svgShape"/><ellipse cx="1972.73" cy="1568.5" fill="#1b2e35" rx="19.71" ry="23.319" class="color1b2e35 svgShape"/><ellipse cx="2064.89" cy="1602.36" fill="#1b2e35" rx="19.71" ry="23.319" class="color1b2e35 svgShape"/><ellipse cx="2143.73" cy="1639.01" fill="#1b2e35" rx="19.71" ry="23.319" class="color1b2e35 svgShape"/><path fill="#e4e9ff" d="m423.654 1429.19-239.88 129.933-35.506 264.99 239.88-129.933 35.506-264.99ZM423.654 2287.72 160.9 2153.094v225.147l262.754 134.625V2287.72Z" class="colore4e9ff svgShape"/><path fill="#ffbe9d" d="M1033.86 2050.43s-239.511-158.078-321.498-190.517c-52.84-20.907-32.434 23.257-156.051-1.041-53.335-10.483-53.959 59.033 23.476 97.387 0 0-163.315-24.9-203.53-38.392-18.255-6.125-45.756 17.413-43.918 37.527-54.721 34.788-46.838 66.193-.246 95.505-11.792 28.85 10.255 50.933 53.226 68.831 0 0 2.409 30.468 13.777 37.26 104.174 62.244 371.197 135.348 586.379 108.258l48.385-214.818Z" class="colorffbe9d svgShape"/><path fill="#060000" d="M584.549 1959.5c18.855 6.968 38.09 9.761 57.703 8.381 20.358 31.755 51.469 56.579 104.248 67.356a2.752 2.752 0 0 0 1.1-5.39c-51.709-10.558-81.942-34.984-101.58-66.295a2.751 2.751 0 0 0-2.555-1.28c-19.388 1.595-38.391-1.051-57.009-7.931a2.75 2.75 0 1 0-1.907 5.159ZM343.624 1962.25c41.997 1.371 79.383 15.666 116.468 30.788a2.75 2.75 0 1 0 2.077-5.093c-37.682-15.366-75.693-29.799-118.365-31.193a2.75 2.75 0 0 0-.18 5.498ZM338.921 2049.1c8.91-12.045 24.422-15.539 43.262-14.263 29.643 2.006 67.338 15.958 102.156 30.288a2.75 2.75 0 0 0 2.094-5.086c-35.395-14.568-73.744-28.651-103.878-30.69-21.012-1.423-38.12 3.047-48.056 16.48a2.75 2.75 0 0 0 4.422 3.271ZM392.535 2118.01c4.17-9.668 9.821-16.249 16.719-20.323 10.491-6.197 23.748-6.612 38.661-3.739 25.913 4.992 56.649 19.947 87.025 34.097a2.75 2.75 0 1 0 2.322-4.987c-30.813-14.352-62.021-29.447-88.306-34.511-16.405-3.161-30.958-2.413-42.5 4.403-7.79 4.602-14.261 11.962-18.972 22.881a2.75 2.75 0 1 0 5.051 2.179ZM473.559 1997.26l60.087 119.053a2.75 2.75 0 1 0 4.911-2.479l-60.087-119.053a2.75 2.75 0 0 0-4.911 2.479Z" class="color060000 svgShape"/><path fill="#ffb228" d="M2132.97 1723.48c39.794-100.744-89.576-198.768-158.193-115.513-82.045 99.546-371.707 450.465-441.605 565.538-60.553 99.69 69.958 268.31 150.198 199.542 114.089-97.778 399.472-522.658 449.6-649.567Z" class="colorffb228 svgShape"/><path fill="#ffb228" d="M1691.16 2129.12c-113.496-60.601-705.481-115.19-705.481-115.19l-41.573 278.901s588.786 126.478 713.563 96.252c90.651-21.96 115.77-216.031 33.491-259.963Z" class="colorffb228 svgShape"/><path fill="#1b2e35" fill-rule="nonzero" d="M1078.45 1426.28c-1.142 15.779-6.967 28.201-17.475 37.266-10.508 9.064-24.357 13.597-41.546 13.597-18.801 0-33.59-6.329-44.367-18.986-10.777-12.657-16.165-30.031-16.165-52.122v-8.964c0-14.1 2.484-26.522 7.453-37.266 4.969-10.743 12.069-18.985 21.302-24.726 9.232-5.741 19.959-8.612 32.18-8.612 16.92 0 30.551 4.533 40.891 13.598 10.341 9.064 16.317 21.788 17.928 38.172h-30.215c-.739-9.468-3.374-16.333-7.907-20.597-4.532-4.264-11.431-6.396-20.697-6.396-10.072 0-17.609 3.609-22.612 10.828-5.002 7.218-7.571 18.414-7.705 33.589v11.079c0 15.847 2.401 27.429 7.202 34.748 4.8 7.319 12.371 10.979 22.712 10.979 9.333 0 16.299-2.132 20.899-6.396 4.599-4.264 7.235-10.861 7.906-19.791h30.216ZM1174.33 1436.65c0-5.708-2.014-10.089-6.043-13.144-4.029-3.055-11.28-6.278-21.755-9.669-10.475-3.391-18.768-6.731-24.878-10.021-16.652-8.998-24.978-21.118-24.978-36.36 0-7.923 2.233-14.99 6.698-21.201s10.877-11.063 19.237-14.554c8.36-3.492 17.743-5.238 28.151-5.238 10.475 0 19.808 1.897 28 5.691 8.192 3.794 14.554 9.149 19.086 16.065 4.532 6.916 6.798 14.772 6.798 23.568h-30.215c0-6.715-2.115-11.935-6.345-15.662-4.231-3.726-10.173-5.59-17.828-5.59-7.386 0-13.127 1.561-17.223 4.684-4.095 3.122-6.143 7.235-6.143 12.338 0 4.767 2.4 8.762 7.201 11.985 4.801 3.223 11.868 6.245 21.201 9.065 17.19 5.17 29.712 11.583 37.568 19.237 7.856 7.655 11.784 17.19 11.784 28.604 0 12.691-4.8 22.645-14.402 29.864-9.602 7.218-22.528 10.827-38.777 10.827-11.281 0-21.554-2.065-30.82-6.194-9.266-4.13-16.333-9.787-21.201-16.972-4.868-7.184-7.302-15.51-7.302-24.978h30.316c0 16.182 9.669 24.273 29.007 24.273 7.185 0 12.791-1.46 16.82-4.381 4.029-2.921 6.043-7 6.043-12.237ZM1301.13 1436.65c0-5.708-2.014-10.089-6.043-13.144-4.029-3.055-11.281-6.278-21.755-9.669-10.475-3.391-18.768-6.731-24.878-10.021-16.652-8.998-24.978-21.118-24.978-36.36 0-7.923 2.233-14.99 6.698-21.201s10.877-11.063 19.237-14.554c8.36-3.492 17.743-5.238 28.151-5.238 10.475 0 19.808 1.897 28 5.691 8.192 3.794 14.554 9.149 19.086 16.065 4.532 6.916 6.798 14.772 6.798 23.568h-30.215c0-6.715-2.115-11.935-6.345-15.662-4.231-3.726-10.173-5.59-17.828-5.59-7.386 0-13.127 1.561-17.223 4.684-4.096 3.122-6.143 7.235-6.143 12.338 0 4.767 2.4 8.762 7.201 11.985 4.801 3.223 11.868 6.245 21.201 9.065 17.19 5.17 29.712 11.583 37.568 19.237 7.856 7.655 11.784 17.19 11.784 28.604 0 12.691-4.8 22.645-14.402 29.864-9.602 7.218-22.528 10.827-38.777 10.827-11.281 0-21.554-2.065-30.82-6.194-9.266-4.13-16.333-9.787-21.201-16.972-4.868-7.184-7.302-15.51-7.302-24.978h30.316c0 16.182 9.669 24.273 29.007 24.273 7.185 0 12.791-1.46 16.82-4.381 4.029-2.921 6.043-7 6.043-12.237Z" class="color1b2e35 svgShape"/><path fill="#35393a" d="M1461.9 719.862a122.523 122.523 0 0 0-40.494 0l-6.55 20.196a104.14 104.14 0 0 0-35.155 16.93l-19.874-7.471a122.497 122.497 0 0 0-25.247 31.66l11.706 17.713a104.106 104.106 0 0 0-8.683 38.041l-18.232 10.88a122.5 122.5 0 0 0 9.011 39.478l21.147 1.892a104.12 104.12 0 0 0 24.328 30.506l-2.861 21.038a122.492 122.492 0 0 0 36.484 17.57l14.664-15.354a104.113 104.113 0 0 0 39.019 0l14.664 15.354a122.492 122.492 0 0 0 36.484-17.57l-2.861-21.038a104.12 104.12 0 0 0 24.328-30.506l21.147-1.892a122.5 122.5 0 0 0 9.011-39.478l-18.233-10.88a104.125 104.125 0 0 0-8.682-38.041l11.706-17.713a122.5 122.5 0 0 0-25.248-31.66l-19.874 7.471a104.122 104.122 0 0 0-35.155-16.93l-6.55-20.196Zm-20.247 63.235c31.774 0 57.571 25.797 57.571 57.571 0 31.774-25.797 57.571-57.571 57.571-31.774 0-57.57-25.797-57.57-57.571 0-31.774 25.796-57.571 57.57-57.571Z" class="color35393a svgShape"/><path fill="#1b2e35" d="M1191.32 544.298c3.511-49.879 22.049-96.72 53.851-136.055 20.527 8.743 42.42 16.141 65.262 21.979-10.505 35.927-16.487 74.263-17.811 114.076H1191.32Zm232.819 162.568v98.739c-28.8-9.503-55.594-42.09-74.774-91.101 23.35-4.253 48.444-6.792 74.774-7.638Zm-62.436 88.521a251.606 251.606 0 0 1-95.1-57.3c16.376-6.378 34.187-11.999 53.144-16.727 11.3 29.658 25.603 54.826 41.956 74.027Zm-38.866-216.656h101.302v98.13c-28.956.912-57.294 4.035-84.417 9.287-9.733-33.24-15.516-70.144-16.885-107.417Zm101.302-132.563v98.13h-101.302c1.369-37.296 7.152-74.177 16.885-107.395 27.255 5.251 55.594 8.375 84.417 9.265Zm-157.536-61.227c27.123-25.992 59.567-45.517 95.1-57.277-16.353 19.158-30.633 44.346-41.956 74.004-18.937-4.728-36.768-10.349-53.144-16.727Zm82.762 23.583c19.18-49.055 45.996-81.619 74.774-91.059v98.719c-26.35-.868-51.446-3.429-74.774-7.66Zm-38.932 284.283c-22.799 5.859-44.713 13.236-65.262 21.978-31.802-39.29-50.34-86.154-53.851-136.054h101.302c1.324 39.79 7.306 78.104 17.811 114.076Zm381.552-114.185c-3.531 49.987-22.049 96.873-53.851 136.163-20.57-8.742-42.486-16.119-65.262-21.956 10.483-35.928 16.464-74.266 17.811-114.207h101.302Zm-232.819-162.438v-98.719c28.8 9.44 55.594 42.027 74.774 91.059-23.328 4.231-48.424 6.792-74.774 7.66Zm104.392-14.516c-11.301-29.658-25.603-54.846-41.979-74.004a251.462 251.462 0 0 1 95.102 57.277c-16.376 6.378-34.187 11.999-53.123 16.727Zm-3.112 142.63h-101.28v-98.13c28.911-.913 57.249-4.036 84.397-9.265 9.733 33.173 15.536 70.079 16.883 107.395Zm30.214 0c-1.324-39.791-7.305-78.105-17.811-114.056 22.822-5.858 44.715-13.234 65.285-21.999 31.802 39.313 50.32 86.154 53.828 136.055H1590.66Zm-131.494 132.563v-98.239h101.28c-1.347 37.404-7.15 74.33-16.883 107.503-27.148-5.251-55.486-8.374-84.397-9.264Zm157.536 61.226a251.702 251.702 0 0 1-95.123 57.3c16.376-19.201 30.678-44.369 41.979-74.027 18.979 4.751 36.79 10.349 53.144 16.727Zm-82.785-23.583c-19.157 49.011-45.951 81.577-74.751 91.101v-98.739c26.24.846 51.313 3.385 74.751 7.638Zm-92.276-429.712c-155.198 0-281.484 124.144-281.484 276.733 0 152.567 126.286 276.711 281.484 276.711 155.221 0 281.506-124.144 281.506-276.711 0-152.589-126.285-276.733-281.506-276.733Z" class="color1b2e35 svgShape"/><path fill="#ffb228" d="M2749.22 1723.83c-113.356-106.898-196.179-186.006-330.089-210.687-114.031-21.017-269.694 14.755-401.688 65.59l-295.355 975.685c165.254 128.581 600.74 128.028 917.812 99.168l109.32-929.756Z" class="colorffb228 svgShape"/><path fill="#9e242f" d="m2014.81 1577.94-190.812 630.333a2.75 2.75 0 1 0 5.265 1.593l190.812-630.332a2.751 2.751 0 0 0-5.265-1.594Z" class="color9e242f svgShape"/><path fill="#9e242f" d="M2749.22 1723.83c-113.356-106.898-196.179-186.006-330.089-210.687-114.031-21.017-269.694 14.755-401.688 65.59l-16.34 53.977c308.021-113.088 553.51-53.675 738.549 172.496l9.568-81.376Z" class="color9e242f svgShape"/><path fill="#ffbe9d" d="m2468.86 1292.83-228.792 45.756-9.472 204.321c-26.389 259.517 68.905 255.626 271.618 19.204l-33.354-269.281Z" class="colorffbe9d svgShape"/><path fill="#f69e70" d="M2232.26 1507.02c121.657 59.654 153.963-156.879 151.726-197.21l-143.918 28.782-7.808 168.428Z" class="colorf69e70 svgShape"/><path fill="#e4e9ff" d="M2132.13 1149.29c30.386 4.687 50.48 38.153 44.845 74.688-5.635 36.534-34.879 62.391-65.264 57.705-30.386-4.687-50.48-38.153-44.845-74.688 5.634-36.535 34.879-62.391 65.264-57.705Z" class="colore4e9ff svgShape"/><path fill="#ffbe9d" d="M2440.88 1090.15c-43.39-36.369-165.977-74.232-226.733-28.301-175.925 132.997-150.151 364.795-52.559 413.901 50.575 25.448 187.108 12.479 231.787-125.333 178.16-19.708 98.855-217.226 47.505-260.267Z" class="colorffbe9d svgShape"/><path fill="#060000" d="M2155.7 1185.22c7.767 1.566 12.074 12.746 9.613 24.951-2.461 12.205-10.764 20.842-18.531 19.276-7.767-1.566-12.074-12.747-9.613-24.951 2.461-12.205 10.764-20.843 18.531-19.276ZM2263.11 1195.45c7.766 1.566 12.074 12.746 9.613 24.951-2.461 12.205-10.764 20.842-18.531 19.276-7.767-1.566-12.074-12.746-9.613-24.951 2.46-12.205 10.764-20.842 18.531-19.276Z" class="color060000 svgShape"/><path fill="#fdf2f2" d="M2158.91 1345.43c12.68-10.168 122.141-6.58 131.353 4.307 9.211 10.886-54.193 61.729-76.085 61.011-21.892-.718-67.949-55.149-55.268-65.318Z" class="colorfdf2f2 svgShape"/><path fill="#060000" d="M2156.38 1123.36c12.735-2.934 25.261.048 36.617 3.538a2.75 2.75 0 0 0 1.616-5.258c-12.236-3.76-25.746-6.801-39.468-3.64a2.75 2.75 0 1 0 1.235 5.36ZM2258.39 1135.55c12.465 1.212 25.591 6.538 39.382 15.703a2.75 2.75 0 1 0 3.044-4.581c-14.657-9.741-28.645-15.309-41.894-16.597a2.751 2.751 0 0 0-.532 5.475ZM2173.87 1292.83v-2.001l-.001-.017c-.028-2.153-1.389-2.407-2.749-1.996-.853-.258-1.705-.254-2.229.314-3.303-1.235-8.682-3.459-13.106-6.289-2.112-1.35-4.007-2.826-5.252-4.426-.854-1.098-1.42-2.22-1.14-3.42 5.836-24.977 59.356-131.463 59.356-131.463a2.75 2.75 0 0 0-4.916-2.468s-53.908 107.479-59.796 132.68c-.908 3.887 1.212 7.795 5.16 11.102 7.179 6.012 20.295 10.346 21.052 10.593l.053.018.053.015.077.022.065.015.024.006.008.001.036.009.029.005.088.016.019.003.03.004.029.004.058.007.021.002.013.001.069.007.042.002.015.001h.009c.041.002.081.003.122.003l.011.001.011-.001c.041 0 .082-.001.122-.003h.008l.016-.001.045-.003.061-.005.018-.002.021-.002.059-.007.027-.004.031-.004.02-.004a1.29 1.29 0 0 0 .086-.015l.029-.005.036-.009.008-.001.024-.006.065-.015.056-.016.02-.005a2.58 2.58 0 0 0 .357-.131l.011-.005.011-.005.05-.023.061-.031.023-.011.005-.003.03-.015.028-.017.008-.004.04-.023.039-.022.032-.021.029-.018.024-.016.026-.017.013-.009.072-.051.01-.007.013-.01.018-.013.025-.019.052-.042.011-.009.088-.076.01-.009.008-.007c.029-.026.057-.053.084-.08l.048-.05.039-.042.01-.011c.026-.028.051-.057.075-.086l.009-.01.009-.012c.024-.028.046-.057.068-.086l.005-.006.012-.018.029-.039.019-.028.016-.023.009-.013a1.48 1.48 0 0 0 .049-.078l.014-.02.016-.029.007-.012.017-.03.026-.045.025-.048.009-.017.005-.011c.034-.067.065-.136.094-.207l.032-.082.021-.062.022-.066.037-.13.009-.037.001-.006.007-.029.014-.061.007-.041.006-.027.005-.031.006-.037.003-.02.01-.072.002-.024.003-.021.001-.018c.004-.037.007-.075.009-.113v-.009l.001-.016c.002-.041.003-.083.003-.126Z" class="color060000 svgShape"/><path fill="#1b2e35" d="M2502.22 1093.94c-41.629-67.4-252.007-225.321-271.618-105.37-87.534-20.624-151.33-25.497-90.815 52.118-99.188 1.952-100.193 52.732 7.401 85.849l60.175-59.376 156.893 32.011 28.954 164.317c92.704-146.653 129.895 67.778 1.262 85.295 16.24 30.557 50.348 34.329 85.908 44.186 60.448-85.663 63.47-231.63 21.84-299.03Z" class="color1b2e35 svgShape"/><path fill="#aabbff" d="M2507.91 1143.75c-17.183 2.505-33.681 1.576-49.095-7.399l-10.641 62.817c17.996-7.326 36.589-1.611 48.216 8.767l11.52-64.185Z" class="colorabf svgShape"/><path fill="#e4e9ff" d="M2375.32 932.649c-52.505-13.999-80.018 12.234-80.018 12.234s111.862 10.311 158.207 183.624c5.606 20.963 69.396 22.529 68.546 1.153-3.334-83.891-66.672-175.663-146.735-197.011ZM2472.07 1196.48c30.386 4.687 50.48 38.153 44.845 74.688-5.635 36.534-34.879 62.391-65.265 57.704-30.385-4.686-50.48-38.153-44.845-74.687 5.635-36.535 34.879-62.391 65.265-57.705Z" class="colore4e9ff svgShape"/><path fill="#ffb228" d="M2783.82 1777.98c-38.132-141.373-166.084 30.699-184.328 101.173-33.805 130.593-33.681 493.791 38.363 629.047 36.61 68.731 104.368 158.418 196.107 145.384 61.81-8.781 96.687-45.611 115.191-92.051 73.481-184.43-132.053-660.171-165.333-783.553Z" class="colorffb228 svgShape"/><path fill="#9e242f" d="M2685.41 1744.48c-40.56 33.966-79.122 97.481-88.573 133.992-20.332 78.542-28.46 241.021-16.078 387.723 8.271 98.003 25.73 188.963 54.676 243.306a2.75 2.75 0 1 0 4.855-2.586c-28.69-53.862-45.852-144.048-54.05-241.183-12.323-146.004-4.313-307.713 15.922-385.881 9.254-35.748 47.067-97.898 86.78-131.154a2.75 2.75 0 1 0-3.532-4.217Z" class="color9e242f svgShape"/><path fill="#ffbe9d" d="M2621.7 2258.61s-333.905-119.926-475.262-81.142c-141.356 38.784-299.106 260.066-327.642 321.386-20.649 44.374 62.562 69.919 116.269 25.03 35.98 28.426 79.553 16.994 126.067-9.882 16.56 17.615 42.406 28.265 80.023 30.087 41.188 17.517 82.377 13.663 123.565-3.04 20.606 11.765 43.766 18.423 74.91 9.113 49.241 17.164 96.842 1.996 143.446-32.8l79.779 16.795c55.883-80.47 81.73-146.502 58.845-275.547Z" class="colorffbe9d svgShape"/><path fill="#060000" d="M1939.03 2521.27c20.592-17.902 45.321-51.564 57.624-77.755a2.752 2.752 0 0 0-1.32-3.659 2.752 2.752 0 0 0-3.659 1.32c-12.014 25.577-36.145 58.461-56.253 75.943a2.75 2.75 0 1 0 3.608 4.151Z" class="color060000 svgShape"/><path fill="#060000" d="M2072.17 2308.05s-25.237 25.673-46.817 55.918c-14.578 20.433-27.42 42.968-30.029 61.182-2.517 17.573 6.821 34.96 19.165 49.408 18.005 21.076 42.164 35.887 42.164 35.887a2.75 2.75 0 1 0 2.875-4.69s-23.411-14.348-40.857-34.77c-11.292-13.218-20.204-28.979-17.902-45.055 2.51-17.521 15.038-39.112 29.062-58.767 21.324-29.887 46.261-55.257 46.261-55.257a2.75 2.75 0 1 0-3.922-3.856ZM2163.55 2318.07s-29.344 58.432-47.386 105.648c-7.851 20.544-13.53 39.015-13.916 49.81-1.391 38.838 34.077 67.217 34.077 67.217a2.75 2.75 0 1 0 3.428-4.301s-33.307-26.431-32.008-62.719c.373-10.42 5.98-28.214 13.557-48.044 17.956-46.99 47.163-105.142 47.163-105.142a2.75 2.75 0 1 0-4.915-2.469ZM2259.49 2537.09a2.751 2.751 0 0 0 4.559 1.09c.674-.674 1.626-2.614-.448-4.756-3.842-3.969-28.342-20.192-28.805-51.225-.263-17.628 8.434-39.562 18.853-59.572 15.852-30.441 35.845-56.425 35.845-56.425a2.75 2.75 0 1 0-4.359-3.355s-20.284 26.359-36.364 57.24c-10.868 20.871-19.75 43.808-19.475 62.194.489 32.753 25.623 50.297 30.194 54.809Zm.309-2.355-.002.003.002-.003Zm.062-.093-.034.05.052-.074-.018.024Zm.068-.091-.034.046.067-.087-.033.041Zm.072-.089-.024.029.072-.083-.048.054Zm.066-.074.092-.098a2.098 2.098 0 0 0-.092.098ZM2349.74 2463.73c15.053-21.531 32.903-35.029 47.432-38.196 6.59-1.437 12.425-.697 16.741 2.72 4.428 3.505 7.155 9.688 7.775 18.645.751 10.842-5.692 23.584-14.825 36.215-22.12 30.592-60.481 60.124-60.481 60.124a2.751 2.751 0 0 0 3.357 4.357s39.052-30.099 61.582-61.258c10.002-13.834 16.677-27.944 15.854-39.818-.756-10.921-4.449-18.304-9.848-22.578-5.511-4.363-12.91-5.616-21.326-3.782-15.482 3.375-34.728 17.476-50.769 40.42a2.75 2.75 0 1 0 4.508 3.151ZM2496.64 2445.45c-18.377 35.668-45.287 55.617-87.211 47.909a2.751 2.751 0 0 0-.995 5.41c44.684 8.215 73.509-12.784 93.095-50.8a2.75 2.75 0 1 0-4.889-2.519Z" class="color060000 svgShape"/><path fill="#ffb228" d="M2920.78 2326.36c-62.915-59.183-368.168-96.392-368.168-96.392 37.518 129.101-22.927 238.037-79.374 364.013 0 0 301.704 77.479 383.423 55.687 122.412-32.644 146.591-245.726 64.119-323.308Z" class="colorffb228 svgShape"/><path fill="#9e242f" d="M2922.15 2324.91c-19.027-17.899-60.003-33.893-108.099-47.39-111.452-31.275-261.197-49.531-261.197-49.531a1.997 1.997 0 0 0-1.765.69 1.995 1.995 0 0 0-.397 1.853c37.38 128.628-23.039 237.123-79.279 362.637a2.002 2.002 0 0 0 1.327 2.755s147.968 37.997 264.803 53.315c50.354 6.601 94.958 8.947 119.633 2.367a2 2 0 1 0-1.031-3.865c-24.356 6.495-68.38 4.048-118.082-2.468-108.094-14.172-242.885-47.795-262.027-52.638 55.944-124.571 115.036-232.74 79.329-360.3 21.604 2.744 155.661 20.429 257.605 49.036 47.324 13.28 87.718 28.841 106.439 46.452a2 2 0 0 0 2.741-2.913Z" class="color9e242f svgShape"/><path fill="#1b2e35" d="M1647.31 1824.11H747.88l233.612 495.166a56.147 56.147 0 0 0 50.779 32.19h863.838L1647.31 1824.11Z" class="color1b2e35 svgShape"/><path fill="#3e4548" d="M1647.31 1824.11H747.88l17.265-22.844a56.146 56.146 0 0 1 44.793-22.293h871.486l-34.114 45.137Z" class="color3e4548 svgShape"/><path fill="#3e4548" d="m1647.31 1824.11 248.799 527.356 13.636-18.042a56.146 56.146 0 0 0 5.986-57.811l-234.307-496.64-34.114 45.137Z" class="color3e4548 svgShape"/><path fill="#f5f8f9" d="M1270.06 1992.18c30.267 0 61.353 24.708 69.375 55.142 8.022 30.434-10.038 55.143-40.305 55.143s-61.353-24.709-69.375-55.143c-8.022-30.434 10.039-55.142 40.305-55.142Z" class="colorf5f8f9 svgShape"/><path fill="#101010" d="M1376.02 2181.72h-133.924l-136.197 437.777a19.044 19.044 0 0 0 18.184 24.701h108.055l143.882-462.478Z" class="color101010 svgShape"/><path fill="#181818" d="M1376.02 2181.72h30.322l-123.921 398.318 293.602-1.438 35.703 65.598h-382.674l146.968-462.478Z" class="color181818 svgShape"/><path fill="#101010" d="M2486.28 2661.95c0-9.798-7.955-17.752-17.753-17.752H702.707c-9.798 0-17.753 7.954-17.753 17.752v35.506c0 9.798 7.955 17.753 17.753 17.753h1765.82c9.798 0 17.753-7.955 17.753-17.753v-35.506Z" class="color101010 svgShape"/><path fill="#1b2e35" d="M1649.11 2588.16h736.666v56.039H1649.11z" class="color1b2e35 svgShape"/></svg>