<svg xmlns="http://www.w3.org/2000/svg" enable-background="new 0 0 3800 3000" viewBox="0 0 3800 3000"><path fill="#e5eaf6" d="M2624.28,857.86v1792.24h-1037.8V925.45h216.32c33.55,0,65.12-13.02,88.95-36.9   c23.58-23.78,36.6-55.3,36.6-88.75c0-69.21-56.34-125.5-125.55-125.5h-182.88c74.1-195.95,263.48-335.31,485.43-335.31   c206.11,0,384.1,120.12,467.87,294.12h-162.2c-27.92,0-54.12,10.8-73.75,30.49c-19.68,19.68-30.54,45.83-30.54,73.7   c0,57.47,46.82,104.24,104.29,104.24h213.02C2624.18,846.96,2624.28,852.39,2624.28,857.86z" class="colore5eaf6 svgShape"/><path fill="#527dba" d="M2897.91,2334.61c-49.32,93.58-34.79,115.83-18.09,157.47c16.36,40.7-72.76,77.53-13.66,158.02l-19.56,6.06     c0,0-138.04,16.95-142.86-54.15c-4.84-71.1,117.68-24.02,104.84-71.62c-12.82-47.62-96.29-85.76-78.22-120     c18.04-34.26,58.7,47.72,91.78,12.6c33.04-35.13-52.38-73.52-54.88-118.6c-2.52-45.07,39.96-6.64,96.79-5.14     c52.34,1.4-14.76-113.34,27.52-111.45C2909.34,2216.91,2931.09,2271.65,2897.91,2334.61z" class="color527dba svgShape"/><path fill="#6f95d5" d="M2979.97,2411.37c-0.46,47.92-102.72,106.34-48.61,126.83c54.13,20.49,30.29,82.32,30.29,82.32l-95.49,29.58     c-59.1-80.5,30.01-117.32,13.66-158.02c-16.7-41.64-31.23-63.89,18.09-157.47c33.18-62.96,11.43-117.7-6.35-146.82     c3.64,0.16,8.09,1.19,13.46,3.23c68.15,25.71,26.33,131.3,18.6,155.67C2915.9,2371.06,2980.41,2363.48,2979.97,2411.37z" class="color6f95d5 svgShape"/><path fill="#b7c9e4" d="M2773.99 2414.04c-14.55 13.67-13.42 45.28-12.49 56.54-4.25 7.69-11.54 21.89-14.05 32.8-4.74-10.28-10.69-20.35-18.23-29.86-6.88-8.68-12.2-17.29-16.31-25.69-2.17-10.65-4.79-19.4-9.82-28.45-5.23-25.28-.8-46.6 3.38-59.25 13-6.59 22.05-12.91 32.12-27.02 11.34-15.89-18.42-42.19-32.58-25.5-12.97 15.28-6.08 48.62-4.82 54.16-3.44 11.48-6.53 28.29-4.27 48.03-1.18-1.62-2.39-3.24-3.77-4.93-13.81-16.93-50.99 7.44-37.15 27.66 11.55 16.86 44.2 20.36 54.73 21.05 3.96 7.48 8.84 15.09 14.92 22.76 22.75 28.7 31.05 62.71 33.22 91.83-5.01-4.43-12.7-7.96-18.96-10.55-9.1-15.15-16.9-25.14-34.46-35.61-18.76-11.19-45.39 24.41-25.46 38.68 16.46 11.79 47.85 4.19 58.29 1.18 7.63 3.16 17.99 7.96 20.7 13.4.07.15.22.22.32.35 1.37 33.1-4.71 58.22-4.83 58.7-.31 1.22.43 2.46 1.65 2.76.19.05.37.07.56.07 1.02 0 1.95-.69 2.21-1.72.19-.77 15.45-63.42-7.42-122.67-.02-.09-.01-.19-.04-.28-2.25-6.42 6.2-25.33 13.65-38.97 16.76-6.03 28.19-11.73 41.94-27C2821.62 2430.28 2791.85 2397.26 2773.99 2414.04zM3022.32 2482.41c7.59 13.03-.04 35.68-3.14 43.64 1.42 6.49 3.64 18.34 3.1 26.78 5.65-6.42 12.13-12.44 19.64-17.7 4.16-2.92 7.85-5.94 11.21-9.03-9.5-7.22-16.03-13.85-22.19-26.8-7.08-14.91 21.59-32.41 30.91-16.4 4.97 8.54 3.41 21.18.87 31.13 2.81-4.57 5.84-8.61 9.78-12.47 9.24-17.18 10.63-33.58 10.32-43.64-7.99-7.57-13.19-14.1-17.44-26.49-4.79-13.95 22.43-26.59 29.09-11.45 6.1 13.86-6.08 36.52-8.18 40.26.02 9.05-1.36 21.89-7.26 35.71 1.2-.92 2.43-1.83 3.79-2.76 13.65-9.28 35.33 16.38 20.94 28.04-12 9.72-36.4 5.22-44.17 3.45-4.48 4.56-9.65 9.02-15.71 13.27-1.58 1.11-3.11 2.26-4.6 3.43 4.78-2.69 10.17-4.84 17.1-6.6 16-4.06 27.61 27.46 10.1 33.5-14.07 4.86-34.4-6.61-41.85-11.31 0 0-9.83 5.19-24.6 40.32 4.59-2.13 10.91-3.03 16.01-3.55 9.86-9.01 17.66-14.56 32.63-18.36 16-4.06 27.61 27.46 10.1 33.5-14.46 4.99-35.56-7.28-42.47-11.71-6.2.64-14.74 1.89-17.88 5.24-.09.09-.21.11-.31.18-8.13 23.68-9.13 43.18-9.15 43.55-.04.95-.84 1.69-1.79 1.65-.15 0-.29-.03-.42-.07-.74-.22-1.26-.92-1.23-1.72.02-.6 2.48-49.26 31.81-87.24.03-.06.05-.14.09-.2 3.01-4.16.97-19.68-1.49-31.16-10.84-7.98-17.89-14.57-24.55-28.59C2984.32 2483.9 3013 2466.41 3022.32 2482.41z" class="colorb7c9e4 svgShape"/><path fill="#e5eaf6" d="M2815.33,2643.45c1.06,1.59,169.38,0,169.38,0s29.26-35.62-19.99-61.61c-27.85-14.69,20.71-41.78,5.56-70.46    c-15.16-28.69-46.31,8.12-59.42-17.32c-13.11-25.44-40.72-82.82-52.08-47.09c-11.37,35.72,43.84,57.92,7.58,84.44    c-36.27,26.52-81.19,40.05-36.81,49.8S2791.52,2607.82,2815.33,2643.45z" class="colore5eaf6 svgShape"/><path fill="#b7c9e4" d="M1783.39,1785.08c2.57,5.46,527.99,79.65,527.99,79.65s107.97-97.28-33.35-201.43    c-79.92-58.9,84.2-120.49,50.45-217.04c-33.75-96.55-148.17,3.53-177.08-81.93c-28.9-85.46-87.97-277.29-140.2-171.28    c-52.23,106.01,109.43,201.15-16.08,266.77c-125.51,65.62-271.92,86.68-138.15,137.92    C1990.74,1648.97,1725.9,1662.83,1783.39,1785.08z" class="colorb7c9e4 svgShape"/><path fill="#6f95d5" d="M2072.03,1459.48c9.7,16.64-0.05,45.57-4,55.73c1.82,8.29,4.65,23.42,3.96,34.2    c7.21-8.2,15.49-15.88,25.08-22.6c5.31-3.72,10.02-7.59,14.32-11.53c-12.14-9.23-20.47-17.68-28.33-34.23    c-9.05-19.04,27.57-41.38,39.47-20.95c6.35,10.91,4.35,27.04,1.11,39.75c3.59-5.84,7.45-11,12.49-15.92    c11.8-21.94,13.57-42.88,13.18-55.72c-10.21-9.67-16.84-18.01-22.27-33.83c-6.11-17.81,28.64-33.95,37.15-14.62    c7.79,17.7-7.76,46.64-10.45,51.41c0.02,11.56-1.74,27.96-9.27,45.6c1.54-1.17,3.1-2.34,4.84-3.52    c17.43-11.86,45.11,20.91,26.74,35.8c-15.32,12.42-46.48,6.66-56.41,4.41c-5.72,5.83-12.33,11.52-20.06,16.94    c-2.02,1.42-3.97,2.89-5.88,4.39c6.1-3.43,12.98-6.18,21.84-8.43c20.43-5.19,35.26,35.07,12.9,42.78    c-17.97,6.21-43.92-8.45-53.44-14.45c0,0-12.55,6.63-31.41,51.49c5.86-2.72,13.93-3.87,20.44-4.54    c12.59-11.51,22.55-18.6,41.67-23.45c20.43-5.19,35.26,35.07,12.9,42.79c-18.47,6.38-45.41-9.3-54.24-14.95    c-7.92,0.82-18.83,2.41-22.83,6.69c-0.11,0.12-0.26,0.15-0.39,0.23c-10.38,30.24-11.66,55.14-11.68,55.62    c-0.05,1.21-1.08,2.15-2.29,2.1c-0.19-0.01-0.37-0.04-0.53-0.09c-0.94-0.28-1.61-1.17-1.57-2.2c0.03-0.76,3.16-62.9,40.62-111.41    c0.04-0.08,0.06-0.17,0.11-0.25c3.85-5.32,1.24-25.13-1.9-39.79c-13.84-10.19-22.84-18.6-31.35-36.51    C2023.51,1461.39,2060.13,1439.05,2072.03,1459.48z" class="color6f95d5 svgShape"/><path fill="#527dba" d="M878.21,2244.35c-70.88,114.84-54.32,144.41-36.67,198.86c17.29,53.23-99.32,92.37-31.07,199.95l-25.42,6.02     c0,0-177.17,9.61-177.14-81.31c0-90.91,151.87-20.37,139.65-82.08c-12.19-61.72-115.13-117.5-89.16-159.52     c25.92-42.04,70.58,65.82,115.72,23.99c45.1-41.85-60.3-98.12-59.57-155.71c0.7-57.59,51.44-4.99,123.63,1.85     c66.5,6.31-8.97-145.54,44.68-139.48C902.96,2095.53,925.9,2167.09,878.21,2244.35z" class="color527dba svgShape"/><path fill="#6f95d5" d="M976.01,2349.17c-4.74,60.96-139.95,126.45-72.87,157.22c67.12,30.76,31.43,107.4,31.43,107.4l-124.1,29.37     c-68.25-107.58,48.37-146.72,31.07-199.95c-17.65-54.45-34.21-84.02,36.67-198.86c47.69-77.27,24.75-148.82,4.64-187.42     c4.62,0.52,10.19,2.22,16.85,5.27c84.52,38.63,22.14,169.4,10.19,199.75C897.95,2292.3,980.72,2288.25,976.01,2349.17z" class="color6f95d5 svgShape"/><path fill="#b7c9e4" d="M740.54,2324.71c-20.12,18.9-18.55,62.62-17.28,78.19c-5.88,10.64-15.96,30.27-19.43,45.36    c-6.55-14.21-14.78-28.15-25.2-41.3c-9.52-12.01-16.87-23.9-22.56-35.52c-3.01-14.73-6.62-26.83-13.58-39.34    c-7.23-34.95-1.11-64.45,4.68-81.93c17.97-9.11,30.5-17.85,44.42-37.36c15.68-21.97-25.47-58.35-45.06-35.26    c-17.93,21.14-8.41,67.23-6.66,74.89c-4.76,15.87-9.03,39.12-5.91,66.42c-1.64-2.23-3.31-4.48-5.21-6.82    c-19.1-23.41-70.52,10.29-51.37,38.25c15.97,23.32,61.12,28.15,75.68,29.11c5.48,10.34,12.23,20.87,20.63,31.47    c31.46,39.69,42.93,86.73,45.93,126.99c-6.93-6.13-17.56-11.01-26.23-14.59c-12.59-20.95-23.37-34.76-47.66-49.25    c-25.95-15.48-62.76,33.76-35.21,53.5c22.76,16.31,66.18,5.79,80.61,1.64c10.55,4.36,24.88,11.01,28.63,18.52    c0.1,0.21,0.3,0.31,0.44,0.48c1.89,45.78-6.52,80.51-6.68,81.17c-0.42,1.69,0.6,3.4,2.28,3.82c0.26,0.07,0.52,0.1,0.77,0.1    c1.41,0,2.69-0.95,3.05-2.38c0.27-1.06,21.37-87.7-10.26-169.64c-0.03-0.13-0.01-0.26-0.05-0.39    c-3.11-8.87,8.57-35.03,18.88-53.89c23.18-8.34,38.98-16.22,57.99-37.34C806.41,2347.17,765.24,2301.51,740.54,2324.71z" class="colorb7c9e4 svgShape"/><path fill="#b7c9e4" d="M522.31 2416c-5.56 23.2 16.31 54.03 24.62 64.67.8 10.48 2.84 29.43 7.5 41.98-11.48-7.16-24.04-13.32-37.8-17.87-7.63-2.52-14.59-5.43-21.09-8.57 11.1-15.27 17.98-28.27 21.4-50.71 3.94-25.81-47.46-39.25-54.29-10.77-3.65 15.2 4.48 33.63 12.85 47.55-6.34-5.64-12.76-10.38-20.5-14.43-21.81-21.81-31.39-46.02-35.5-61.4 8.66-15.11 13.56-27.36 14.36-48.07.9-23.31-46.08-30.06-49.28-4.09-2.92 23.78 25.84 52.55 30.73 57.26 4.09 13.72 12.04 32.54 27.26 50.78-2.24-.84-4.51-1.67-7-2.45-24.9-7.85-46.05 40.89-18.95 52 22.6 9.27 57.51-8.67 68.48-14.89 8.86 4.87 18.73 9.27 29.84 12.94 2.9.96 5.74 2.01 8.54 3.11-8.46-1.9-17.6-2.7-28.91-2.21-26.09 1.13-29.31 54.17-.05 55.35 23.53.95 49.09-25.68 58.23-36.19 0 0 17.25 3.39 55.62 49.87-7.92-1.14-17.91.38-25.86 1.91-19.04-9.16-33.38-14.02-57.79-12.95-26.09 1.14-29.31 54.17-.05 55.35 24.18.98 50.55-27.22 59-37.07 9.69-1.85 23.19-3.86 29.47-.21.17.1.36.08.55.14 23.09 32.17 33.5 61.24 33.69 61.8.49 1.42 2.04 2.17 3.46 1.68.22-.07.42-.17.6-.29 1.02-.67 1.49-1.97 1.07-3.17-.31-.9-26.18-73.49-87.91-117.66-.08-.08-.13-.19-.23-.26-6.46-4.93-10.43-29.37-11.93-47.88 12.79-17.02 20.46-30.21 24.17-54.49C580.54 2400.96 529.14 2387.52 522.31 2416zM808.68 2641.96c1.47 2.2 234.24 0 234.24 0s40.47-49.27-27.65-85.19c-38.52-20.32 28.64-57.77 7.68-97.45-20.96-39.67-64.04 11.23-82.17-23.95-18.13-35.18-56.3-114.53-72.02-65.12-15.72 49.4 60.63 80.09 10.48 116.77-50.15 36.68-112.28 55.39-50.9 68.86C889.72 2569.35 775.75 2592.7 808.68 2641.96z" class="colorb7c9e4 svgShape"/><path fill="#e5eaf6" d="M613.53,1073.77h266.29c16.56,0,31.59-6.7,42.45-17.56c10.86-10.95,17.56-25.98,17.56-42.54     c0-33.13-26.88-60.01-60.01-60.01H613.53c-16.65,0-31.68,6.7-42.54,17.56c-10.86,10.86-17.56,25.89-17.56,42.45     C553.43,1046.89,580.31,1073.77,613.53,1073.77z" class="colore5eaf6 svgShape"/><path fill="#6f95d5" d="M673.29 1046.59c-5.71-3.07-10.19-7.33-13.46-12.77-3.27-5.44-4.9-11.6-4.9-18.46 0-6.86 1.63-13.01 4.9-18.46 3.27-5.44 7.75-9.7 13.46-12.77 5.7-3.07 12.12-4.6 19.25-4.6 6.01 0 11.43 1.06 16.28 3.17 4.85 2.11 8.92 5.15 12.22 9.11l-10.3 9.5c-4.68-5.41-10.49-8.12-17.42-8.12-4.29 0-8.12.94-11.48 2.82-3.37 1.88-5.99 4.5-7.87 7.87-1.88 3.36-2.82 7.19-2.82 11.48 0 4.29.94 8.12 2.82 11.48 1.88 3.36 4.5 5.99 7.87 7.87 3.36 1.88 7.19 2.82 11.48 2.82 6.93 0 12.73-2.74 17.42-8.21l10.3 9.5c-3.3 4.03-7.39 7.09-12.28 9.2-4.88 2.11-10.32 3.17-16.33 3.17C685.38 1051.19 679 1049.65 673.29 1046.59zM776.27 1021.4h-17.22v16.82h-12.77v-16.82h-17.12v-12.08h17.12V992.5h12.77v16.82h17.22V1021.4zM836.14 1021.4h-17.22v16.82h-12.77v-16.82h-17.12v-12.08h17.12V992.5h12.77v16.82h17.22V1021.4z" class="color6f95d5 svgShape"/><path fill="#e5eaf6" d="M2833.57,2163.14h319.33c17.88,0,34.09-7.23,45.81-18.95c11.72-11.82,18.95-28.04,18.95-45.91     c0-35.75-29.01-64.77-64.77-64.77h-319.33c-17.97,0-34.19,7.23-45.91,18.95c-11.72,11.72-18.95,27.94-18.95,45.81     C2768.7,2134.12,2797.72,2163.14,2833.57,2163.14z" class="colore5eaf6 svgShape"/><path fill="#6f95d5" d="M2927.83 2126.26c-4.85-2.61-8.66-6.23-11.44-10.85-2.78-4.63-4.16-9.86-4.16-15.69 0-5.83 1.39-11.06 4.16-15.69 2.78-4.63 6.59-8.24 11.44-10.85 4.85-2.61 10.3-3.91 16.36-3.91 5.1 0 9.72.9 13.84 2.69 4.12 1.8 7.58 4.38 10.39 7.74l-8.75 8.08c-3.98-4.6-8.92-6.9-14.81-6.9-3.65 0-6.9.8-9.76 2.4-2.86 1.6-5.09 3.83-6.69 6.69-1.6 2.86-2.4 6.11-2.4 9.76 0 3.65.8 6.9 2.4 9.76 1.6 2.86 3.83 5.09 6.69 6.69 2.86 1.6 6.11 2.4 9.76 2.4 5.89 0 10.82-2.33 14.81-6.98l8.75 8.08c-2.81 3.42-6.28 6.03-10.43 7.82-4.15 1.8-8.78 2.69-13.88 2.69C2938.1 2130.17 2932.67 2128.87 2927.83 2126.26zM2982.92 2128.28c-4.35-1.26-7.84-2.9-10.47-4.92l4.63-10.26c2.52 1.85 5.52 3.34 9 4.46 3.48 1.12 6.95 1.68 10.43 1.68 3.87 0 6.73-.58 8.58-1.72 1.85-1.15 2.78-2.68 2.78-4.58 0-1.4-.55-2.57-1.64-3.49-1.09-.93-2.5-1.67-4.21-2.23-1.71-.56-4.03-1.18-6.94-1.85-4.49-1.06-8.16-2.13-11.02-3.2-2.86-1.07-5.31-2.78-7.36-5.13-2.05-2.36-3.07-5.5-3.07-9.42 0-3.42.92-6.52 2.77-9.3 1.85-2.77 4.64-4.98 8.37-6.6 3.73-1.63 8.29-2.44 13.67-2.44 3.75 0 7.43.45 11.02 1.35 3.59.9 6.73 2.19 9.42 3.87l-4.21 10.35c-5.44-3.08-10.88-4.62-16.32-4.62-3.81 0-6.63.62-8.45 1.85-1.82 1.23-2.73 2.86-2.73 4.88 0 2.02 1.05 3.52 3.16 4.5 2.1.98 5.31 1.95 9.63 2.9 4.49 1.07 8.16 2.13 11.02 3.2 2.86 1.07 5.31 2.75 7.36 5.05 2.05 2.3 3.07 5.41 3.07 9.34 0 3.36-.94 6.44-2.82 9.21-1.88 2.78-4.7 4.98-8.45 6.6-3.76 1.63-8.33 2.44-13.71 2.44C2991.77 2130.17 2987.27 2129.54 2982.92 2128.28zM3036.59 2128.28c-4.35-1.26-7.84-2.9-10.47-4.92l4.63-10.26c2.52 1.85 5.52 3.34 9 4.46 3.48 1.12 6.95 1.68 10.43 1.68 3.87 0 6.73-.58 8.58-1.72 1.85-1.15 2.78-2.68 2.78-4.58 0-1.4-.55-2.57-1.64-3.49-1.09-.93-2.5-1.67-4.21-2.23-1.71-.56-4.03-1.18-6.94-1.85-4.49-1.06-8.16-2.13-11.02-3.2-2.86-1.07-5.31-2.78-7.36-5.13-2.05-2.36-3.07-5.5-3.07-9.42 0-3.42.92-6.52 2.77-9.3 1.85-2.77 4.64-4.98 8.37-6.6 3.73-1.63 8.29-2.44 13.67-2.44 3.76 0 7.43.45 11.02 1.35 3.59.9 6.73 2.19 9.42 3.87l-4.21 10.35c-5.44-3.08-10.88-4.62-16.32-4.62-3.81 0-6.63.62-8.45 1.85-1.82 1.23-2.73 2.86-2.73 4.88 0 2.02 1.05 3.52 3.15 4.5 2.1.98 5.31 1.95 9.63 2.9 4.49 1.07 8.16 2.13 11.02 3.2 2.86 1.07 5.31 2.75 7.36 5.05 2.05 2.3 3.07 5.41 3.07 9.34 0 3.36-.94 6.44-2.82 9.21-1.88 2.78-4.7 4.98-8.45 6.6-3.76 1.63-8.33 2.44-13.71 2.44C3045.44 2130.17 3040.94 2129.54 3036.59 2128.28z" class="color6f95d5 svgShape"/><polygon fill="#527dba" points="2551.3 2332.96 2695.4 2646.73 2224.98 2646.73 2059.69 2271.24" class="color527dba svgShape"/><path fill="#4977ad" d="M2381.78,2348.39l-38.14,298.34h-491.61c0,0-29.67-334.34,72.05-437.22    C2025.79,2106.64,2381.78,2348.39,2381.78,2348.39z" class="color4977ad svgShape"/><path fill="#b7c9e4" d="M3223.03,1347.89l-298.78,254.28l-259.05-66.75c-9.07,25.97-25.92,165.46-49.27,233.62      c76.66,26.86,230.62,94.36,298.78,68.34c174.82-66.75,352.81-432.28,352.81-432.28L3223.03,1347.89z" class="colorb7c9e4 svgShape"/><path fill="#b7c9e4" d="M3153.1,1417.02c0,0,48.25-44.02,48.98-54.62c1.25-18.04-8.88-11.16,22.72-68.68        c21.86-39.77,5.26-68.44,20.47-72.84c29.96-8.66,23.95,69.83,23.95,69.83s74.69-130.19,95.67-113.62        c11.31,8.94-45.41,106.35-45.41,106.35s23.12-12.81,30.59-1.74c11.01,16.32-6.81,32.88-6.81,32.88s14.49-2.29,18.9,11.91        c5.05,16.22-11.62,24.99-11.62,24.99s11.3-1.79,16.1,4.87c4.79,6.66,9.61,21.34-28.77,43.3        c-31.25,17.88-81.28,7.43-132.68,77.39L3153.1,1417.02z" class="colorb7c9e4 svgShape"/><path fill="#6f95d5" d="M3244.15 1253.99c-1.57.49-3.37.74-5.41.77-.9.01-1.64-.71-1.65-1.62-.01-.9.71-1.64 1.62-1.65 4.32-.05 7.22-1.31 8.6-3.74 3.47-6.1-2.38-18.84-4.92-23.24-.45-.78-.19-1.78.59-2.23.77-.46 1.78-.19 2.23.59.41.71 10.04 17.51 4.94 26.49C3248.89 1251.6 3246.87 1253.14 3244.15 1253.99zM3331.67 1363.28c-3.56 1.11-7.5 1.97-11.75 2.35-11.25 1.02-19.95-7.84-22.42-16.7-2.47-8.87 1.02-16.84 9.11-20.78.83-.41 1.79-.06 2.19.75.4.81.06 1.79-.75 2.19-6.68 3.26-9.44 9.6-7.39 16.96 2.11 7.58 9.48 15.18 18.97 14.32 17.5-1.58 29.74-12.02 29.86-12.13.69-.59 1.72-.52 2.31.17.59.68.52 1.72-.17 2.31C3351.22 1353.08 3343.62 1359.56 3331.67 1363.28z" class="color6f95d5 svgShape"/><path fill="#6f95d5" d="M3311.07 1330.18c-4.38 1.36-8.85 2.51-13.2 3.24-6.32 1.06-10.83-1.26-12.36-6.37-3.2-10.69 8.45-34.14 33.31-45.1.83-.38 1.79.01 2.16.84.36.83-.01 1.79-.84 2.16-22.46 9.9-34.4 31.46-31.5 41.17 1.05 3.5 3.97 4.87 8.68 4.08 20.54-3.44 44.9-16.89 45.14-17.03.79-.45 1.79-.16 2.22.63.44.79.16 1.78-.63 2.22C3343.26 1316.47 3327.91 1324.94 3311.07 1330.18zM3342.86 1392.93c-.02.01-.03.01-.04.01-15.14 4.69-23.58-2.1-26.2-9.34-2.76-7.6.03-18.06 10.62-22.49.82-.37 1.79.04 2.14.88.35.83-.04 1.79-.88 2.14-8.73 3.65-11.05 12.18-8.81 18.36 2.14 5.88 9.22 11.33 22.16 7.33.01 0 .02-.01.04-.01 10.53-3.28 21.29-14.07 21.4-14.18.63-.64 1.67-.65 2.31-.01.64.63.65 1.67.01 2.31C3365.15 1378.4 3354.18 1389.41 3342.86 1392.93zM3267.94 1374.03c-3.52 1.09-7.52 1.59-11.99 1.48-.9-.02-1.62-.77-1.6-1.67.02-.9.76-1.62 1.67-1.6 9.54.23 16.62-2.51 21.04-8.14 9.82-12.52 3.79-35.46 3.73-35.69-.24-.87.31-1.79 1.15-2 .87-.24 1.77.28 2 1.15.27 1 6.53 24.74-4.31 38.55C3276.7 1369.88 3272.79 1372.52 3267.94 1374.03zM3257.15 1320.28c-2.77.86-5.83.73-9.17-.39-.86-.29-1.32-1.21-1.03-2.07.28-.86 1.21-1.32 2.07-1.03 3.82 1.28 7 .99 9.73-.91 8.95-6.22 9.72-27.11 9.73-27.32.03-.9.78-1.62 1.69-1.58.9.03 1.61.78 1.58 1.69-.03.92-.83 22.74-11.13 29.9C3259.53 1319.33 3258.37 1319.9 3257.15 1320.28zM3251.42 1418.5c-.12.04-.24.06-.37.07-5.03.37-9.21-1.08-12.44-4.3-6.78-6.78-7.27-19.51-7.19-24.39-5.02.36-9.3-.86-12.75-3.63-7.14-5.74-7.97-16.02-8-16.46-.06-.9.61-1.69 1.51-1.75.9-.07 1.68.61 1.75 1.51.01.09.78 9.33 6.8 14.16 3.14 2.52 7.23 3.43 12.16 2.72.49-.07.99.08 1.35.42.36.34.55.82.52 1.31-.01.16-1.1 16.53 6.17 23.79 2.56 2.55 5.79 3.65 9.88 3.35.9-.07 1.68.61 1.75 1.51C3252.62 1417.59 3252.13 1418.28 3251.42 1418.5z" class="color6f95d5 svgShape"/><path fill="#6f95d5" d="M3272.53 1382.27c-.22.07-.46.09-.7.06-.9-.12-1.52-.95-1.4-1.84.02-.15 2.17-14.52 20.29-15.13.9-.03 1.66.68 1.69 1.58.03.9-.68 1.66-1.58 1.69-15.38.52-17.14 12.18-17.16 12.3C3273.58 1381.58 3273.12 1382.09 3272.53 1382.27zM3340.2 1221.49c-.33.1-.69.1-1.04-.02l-12.76-4.59c-.85-.31-1.29-1.24-.99-2.09.3-.85 1.24-1.29 2.09-.99l12.76 4.59c.85.31 1.29 1.24.99 2.09C3341.08 1220.98 3340.67 1221.34 3340.2 1221.49zM3319.99 1259.25c-.37.12-.79.1-1.17-.08l-14.39-6.6c-.82-.38-1.18-1.35-.81-2.17.38-.82 1.35-1.18 2.17-.81l14.39 6.6c.82.38 1.18 1.35.81 2.17C3320.79 1258.81 3320.42 1259.12 3319.99 1259.25zM3314.36 1261c-.29.09-.6.1-.92.02l-9.49-2.58c-.87-.24-1.39-1.14-1.15-2.01.24-.87 1.14-1.38 2.01-1.15l9.49 2.58c.87.24 1.38 1.14 1.15 2.01C3315.31 1260.43 3314.88 1260.84 3314.36 1261zM2789.16 1552.9l-241.57-109.66-84.23 263.82c0 0 98.26 70 214.66 112.43C2710.38 1724.96 2756.24 1647.23 2789.16 1552.9z" class="color6f95d5 svgShape"/><path fill="#6f95d5" d="M2584.15,2310.98c0,0-153.61,280.69-699.27-50.86c-83.7-50.86,273.35-839.13,565.78-845.48     C2743.07,1408.28,2457.01,1834.2,2584.15,2310.98z" class="color6f95d5 svgShape"/><path fill="#4e5054" d="M1953.83 2053.63c7.37 4.68 11.18 13.11 16.57 19.66 14.97 18.2 37.02 32.8 58.92 41.12 23.87 9.07 49.69 7.48 74.77 6.81 25.48-.68 50.12 1.01 74.98 6.9 48.19 11.41 92.33 34.93 140.48 46.54 44.55 10.74 90.99 14.31 136.68 10.36-22.08-6.3-42.82-16.64-62.81-27.92-24.28-13.7-48.96-27.8-71.98-43.53-21.4-14.63-41.31-31.29-62.45-46.28-19.26-13.66-39.94-25.28-60.08-37.56-20.26-12.35-40.33-25.12-59-39.8-17.98-14.14-36.1-30.28-49.14-49.23-12.72-18.48-17.64-40.08-25.42-60.78-7.12-18.95-17.65-34.03-34.02-46.11-2.8-2.07-5.75-3.94-8.7-5.8-44.56 79.7-81.85 159.91-108.12 229.35 4.87-2.23 9.86-4.17 15.06-5.62C1937.55 2049.5 1946.57 2049.02 1953.83 2053.63zM2280.65 1604.51c-.05.07-.05.14-.11.21-16.98 21.3-27.92 46.59-37.85 71.75-4.27 10.83-8.06 21.89-12.86 32.49-5.23 11.56-11.01 22.85-17.03 34.01-12.77 23.69-26.93 46.67-38.87 70.79-11.73 23.68-19.71 49.16-29.19 73.78-2.17 5.62-4.41 11.2-6.79 16.73 6.06 1 12.15 1.87 18.24 2.5 9 .93 18.58 1.4 27.25-1.65 8.86-3.12 14.89-9.72 19.93-17.38 2.8-4.27 5.21-8.79 9.73-11.48 6.82-4.05 15.24-5.14 22.58-7.93 8.36-3.17 16.24-7.84 22.16-14.64 10.78-12.38 13.55-29.21 14.1-45.09.7-20.33-2.01-40.57-3.3-60.82-1.67-26.33-1.51-52.77 1.58-79C2272.74 1647.32 2276.81 1625.86 2280.65 1604.51z" opacity=".1" class="color4e5054 svgShape"/><path fill="#b7c9e4" d="M2441.9,1337.02l-37.68,115.11c0,0,2.81,60.75,62.87,91.75c60.06,31,50.92-54.25,50.92-54.25v-112.38      L2441.9,1337.02z" class="colorb7c9e4 svgShape"/><path fill="#6f95d5" d="M2507.11,1479.11c-3.18-5.35-3.77-11.09-3-17.2c0.79-6.35,2.45-12.75,1.06-19.14      c-2.46-11.35-13.96-16.81-23.57-21.04c-9.83-4.33-19.96-8.68-29.1-14.36c-8.8-5.46-15.82-12.96-19.24-22.87      c-1.43-4.13-2.26-8.49-2.67-12.93l11.31-34.55l76.11,40.23v112.38c0,0,0.01,0.08,0.01,0.11      C2513.67,1487.27,2509.89,1483.8,2507.11,1479.11z" opacity=".5" class="color6f95d5 svgShape"/><path fill="#6f95d5" d="M2411.96,1285.61c0,0-82.86-69.43-48.69-162.53c34.16-93.1,69.48-167.8,144.2-163.87       c74.72,3.93,44.57,36.71,44.57,36.71s30.15-43.26,82.59-22.29c52.44,20.98,14.42,70.79,14.42,70.79s63.98,47.19-21.76,52.44       C2541.56,1102.1,2507.85,1344.58,2411.96,1285.61z" class="color6f95d5 svgShape"/><path fill="#b7c9e4" d="M2625.46,1157.16c0,0,23.6,245.15-98.32,239.9c-121.92-5.24-116.67-135.03-116.67-135.03       s-15.73,15.08-28.84,7.21c-13.11-7.87-39.33-72.76-17.04-80.62c22.29-7.87,30.81-3.93,30.81-3.93s-53.75-106.84,35.4-122.57       C2519.93,1046.39,2628.11,1040.67,2625.46,1157.16z" class="colorb7c9e4 svgShape"/><path fill="#6f95d5" d="M2426.2,1158.47c0,0,35.4,69.48,0,62.93c-35.4-6.55-35.04-46.33-35.04-46.33s-72.46-32.33-44.93-80.83       c0,0-11.8-47.19,27.53-60.3c39.33-13.11,68.17,10.49,68.17,10.49s-3.93-39.33,56.37-36.71c60.3,2.62,57.68,32.77,57.68,32.77       s78.66-31.27,85.21,13.2c6.55,44.48-18.9,68.52-18.9,68.52s-69.56,29.47-164.63-26.67       C2457.66,1095.55,2475.24,1149.6,2426.2,1158.47z" class="color6f95d5 svgShape"/><path fill="#6f95d5" d="M2530.75 1162.09c-4 5.43-25.81 4.92-38.1 13.03-12.29 8.11-15.49-12.54 0-16.22C2508.13 1155.21 2534.19 1157.42 2530.75 1162.09zM2622.5 1155.45c-4 5.43-25.81 4.92-38.1 13.03-12.29 8.11-15.49-12.54 0-16.22C2599.89 1148.57 2625.94 1150.78 2622.5 1155.45zM2498.98 1203.15c0 7.34 5.95 13.28 13.28 13.28s13.28-5.95 13.28-13.28-5.95-13.28-13.28-13.28S2498.98 1195.81 2498.98 1203.15zM2586.48 1199.22c0 7.34 5.95 13.28 13.28 13.28s13.28-5.95 13.28-13.28c0-7.34-5.95-13.28-13.28-13.28S2586.48 1191.88 2586.48 1199.22zM2542.9 1284.36c-.97 1.17-2.72 1.33-3.88.35-1.17-.98-1.33-2.72-.35-3.88.36-.44 9.1-10.48 28.17 3.07.67.47 1.1.67 1.22.8 3.19-5.33-6.5-43.39-17.52-76.22-.48-1.44.29-3.01 1.74-3.49 1.43-.48 3.01.29 3.49 1.74 7.6 22.64 24.31 76.01 15.5 82.56-.63.47-1.48.87-2.55.94-1.33.08-3.01-.36-5.07-1.82C2548.98 1277.97 2543.1 1284.13 2542.9 1284.36zM2500.56 1283.09c1.27-.84 2.97-.48 3.81.79.84 1.27.49 2.98-.78 3.82-.05.03-3.06 2.08-5.23 5.59.08-.09.13-.2.22-.28 1.16-.98 2.9-.85 3.89.32 20.73 24.4 54.31 15.4 54.64 15.31 1.47-.43 2.99.45 3.4 1.92.41 1.46-.44 2.98-1.91 3.4-.54.15-5.34 1.45-12.36 1.88-12.84.78-33.07-1.38-47.97-18.93-.58-.68-.73-1.56-.55-2.37-.99 1.94-1.69 4.19-1.53 6.79.09 1.52-1.06 2.83-2.59 2.92-1.52.09-2.83-1.06-2.92-2.59C2489.99 1290.15 2500.13 1283.37 2500.56 1283.09z" class="color6f95d5 svgShape"/><path fill="#6f95d5" d="M2482.2,1250.33c0,9.5,10.31,17.21,23.04,17.21c12.72,0,23.04-7.7,23.04-17.21s-10.31-17.21-23.04-17.21       C2492.51,1233.13,2482.2,1240.83,2482.2,1250.33z" opacity=".3" class="color6f95d5 svgShape"/><ellipse cx="2599.76" cy="1249.39" fill="#6f95d5" opacity=".3" rx="23.04" ry="17.21" class="color6f95d5 svgShape"/><path fill="#6f95d5" d="M2377.55,1246.25c0.39,0,0.78-0.09,1.14-0.29c1.16-0.63,1.6-2.09,0.97-3.26       c-0.07-0.13-7.22-13.45-8.03-27.67c-0.73-12.79,10.08-15.4,10.55-15.51c1.29-0.29,2.1-1.58,1.81-2.87       c-0.29-1.29-1.58-2.1-2.87-1.81c-5.27,1.2-15.04,7.03-14.27,20.46c0.87,15.32,8.29,29.11,8.6,29.69       C2375.87,1245.79,2376.7,1246.25,2377.55,1246.25z" class="color6f95d5 svgShape"/><path fill="#b7c9e4" d="M2707.56,2002.9c-30.98-22.88-74.65-16.31-97.53,14.67c-22.89,31-16.32,74.66,14.66,97.54        c30.98,22.88,74.65,16.31,97.54-14.68C2745.12,2069.45,2738.55,2025.78,2707.56,2002.9z M2635.39,2100.64        c-23-16.98-27.86-49.38-10.88-72.38c16.97-22.98,49.37-27.87,72.36-10.88c22.98,16.97,27.86,49.38,10.88,72.36        C2690.78,2112.74,2658.37,2117.61,2635.39,2100.64z" class="colorb7c9e4 svgShape"/><rect width="20" height="65.33" x="2598.96" y="2103.76" fill="#b7c9e4" transform="rotate(36.448 2608.82 2136.283)" class="colorb7c9e4 svgShape"/><path fill="#6f95d5" d="M2608.97,2133.67c-8.55-6.31-20.6-4.5-26.92,4.05l-59.76,80.93c-6.31,8.55-4.5,20.6,4.05,26.92        c8.55,6.31,20.6,4.5,26.92-4.05l59.76-80.93C2619.33,2152.04,2617.52,2139.99,2608.97,2133.67z" class="color6f95d5 svgShape"/><path fill="#b7c9e4" d="M2546.36,2273.99l0.01-0.03c-6.39-3-14.99-8.24-26.84-17.22c0,0,0.11,0.02,0.28,0.09       c-15.97-11.07-40.65-34.25-47.76-47.06c0,0-119.25-53.63-131.85-65.18c-8.29-16.45,32.92-65,32.92-65       c15.33-4.66,113.84,57.75,139.6,55.55c30.04-2.57,87.9-42.38,90.07-19.52c2.19,22.9-44.32,36.01-44.32,36.01       c13.77,2.81,63.83,23.07,72.44,49.12c2.03,13.15-15.32,22.29-19.28,18.69c8.03,7.09-2.23,30.18-14.35,21.97       c4.69,7.37-2.53,30.8-16.33,19.8C2587.61,2288.46,2557.5,2280.82,2546.36,2273.99z" class="colorb7c9e4 svgShape"/><path fill="#ffffff" d="M2583.32 2236.19c.15.37.12.79-.25 1.17-4.26 4.34-8.13 8.61-9.15 14.82-.34 2.05-.75 4.39-2.55 5.71-.82.6-1.81.86-2.75 1.22-1.26.48-2.13 1.28-3.04 2.27-2.97 3.23-5.28 7.11-7.07 11.09-.82 1.83-1.55 3.74-2.17 5.7 7.67 2.66 17.56 4.8 21.34-.08 7.27-9.38 3.28-16.84 3.28-16.84s8.11 6.77 14.4-1.17c5.96-7.52 1.93-18.64 1.93-18.64s7.1 5.71 14.29-4.11c6.79-9.23.05-17.86.05-17.86s10.57 3.53 17.07-8.91c2.01-3.86 2.48-7.09 2.18-9.73.01-.02.01-.02.02-.05l-.04-.11c-.37-.9-.78-1.79-1.23-2.67-.14-.3-.3-.6-.45-.88-.89-1.75-1.94-3.42-3.05-5.07-.64-.9-1.32-1.79-2-2.68-.59 3.32-2.11 6.66-3.69 9.52-1.8 3.24-4.12 6.52-7.61 8.07-3.66 1.66-7.78 1.01-11.53 2.27-3.91 1.37-6.38 5.38-7.07 9.32-.6 3.41.2 6.72-1.77 9.8-2.18 3.43-5.8 5.49-9.05 7.77C2583.38 2236.14 2583.35 2236.17 2583.32 2236.19zM2597.51 2112.44c0 0-15.91 8.56-18.86 7.17-2.94-1.39-1.97-5.22-1.97-5.22S2593.07 2108.68 2597.51 2112.44z" opacity=".2" class="colorfff svgShape"/><path fill="#b7c9e4" d="M2522.05,2154.47l-339.45-227.03l40.26-145.15c-10.33-141.3-146.77-9.11-218.26-18.01     c-10.61,80.54-64.2,127.19-24.78,188.58c101.11,157.46,495.33,256.88,495.33,256.88L2522.05,2154.47z" class="colorb7c9e4 svgShape"/><path fill="#6f95d5" d="M2229.21,1827.84l103.83-371.89c0,0-374.31,221.72-392.02,344.34     C2013.07,1861.75,2108.43,1863.87,2229.21,1827.84z" class="color6f95d5 svgShape"/><g fill="#000000" class="color000 svgShape"><path fill="#2e2e2e" d="M1586.48,1971.07v679.06h828.72c-4.43-7.31-9.02-14.51-13.58-21.66c-5.62-8.84-11.07-17.63-15.31-27.23     c-3.92-8.89-7.02-18.14-9.63-27.49c-5.31-19.03-8.94-38.51-11.41-58.1c-2.24-17.79-4-36.87,1.51-54.25     c4.76-15.01,16.06-26.38,28.51-35.44c12.99-9.46,27.39-17.08,39.28-28.01c13.84-12.72,21.33-30.69,24.15-49.05     c6.08-39.59-9.38-79.54-28.71-113.37c-8.38-14.67-18.41-28.11-27.62-42.23c-8.5-13.04-17.58-28-18.13-44     c-0.42-12.2,5.58-23.74,17.14-28.42c11.99-4.85,25.9-3.87,38.48-2.57c12.55,1.29,25.07,3.93,37.71,3.96     c20.82,0.03,41.72,0.3,62.48-1.7c19.74-1.91,39.36-5.96,57.49-14.21c9.15-4.16,18.28-9.36,26.72-15.42v-119.85H1586.48z" opacity=".35" class="color2e2e2e svgShape"/><path fill="#e5eaf6" d="M2251.84,1754.08l341.22,112.38l320.21-206.64l28.78,40.46c0,0-233.15,327.9-373.04,373.67       c-139.9,45.77-407.96-144.26-407.96-144.26L2251.84,1754.08z" class="colore5eaf6 svgShape"/><path fill="#e5eaf6" d="M3028.26,1670.83l-0.01-0.02c-4.2,3.04-10.62,6.71-20.6,11.15c0,0,0.05-0.06,0.16-0.15         c-4.89,2.39-10.17,4.55-15.53,6.43c-9.27,3.27-16.23,5.13-21.22,6.19c-0.03,0-0.04,0.01-0.06,0.02         c-7.35,1.54-10.41,1.35-10.41,1.35s-76.84,57.63-88.74,61.63c-13.52-0.51-30.1-44.26-30.1-44.26         c2.45-11.52,77.57-52.69,85.3-70.03c9.02-20.23,3.97-71.57,19.44-64.85c15.5,6.73,7.42,41.29,7.42,41.29s0.3-0.33,0.89-0.91         c3.52-3.53,17.17-16.52,33.05-23.67l0.02-0.01c4.42-1.96,9.02-3.5,13.62-4.24c0.81-0.12,1.62-0.24,2.43-0.33         c1.44-0.15,2.9-0.21,4.34-0.16c0.23,0,0.48,0.01,0.72,0.02c0.72,0.02,1.44,0.08,2.15,0.16l0.08,0.01         c0.01,0.02,0.01,0.02,0.02,0.03c1.81,0.75,3.72,2.2,5.48,4.86c5.69,8.6-0.33,14.14-0.33,14.14s7.94-1.27,11.47,6.38         c3.76,8.12-2.43,10.65-2.43,10.65s8.57,1.36,11.3,7.86c2.87,6.86-4.36,9.67-4.36,9.67s6.21,0.08,9.66,8.09         C3045.1,1659.33,3028.26,1670.83,3028.26,1670.83z" class="colore5eaf6 svgShape"/><path fill="#231f20" d="M2960.52 1691.04c-7.72-1.4-15.59-11.38-21.86-21.22-4.76-7.48-5.5-16.2-4.93-23.36-.71 1.46-1.38 2.95-1.94 4.5-1.47 4.05-8.72 21.29-1.69 30.42 10.99 14.27 26.21 8.56 29.82 10.06C2960.11 1691.31 2960.32 1691.18 2960.52 1691.04zM3010.7 1670.93c-3.76-.51-24.73 16.22-40.48-12.36-8.77-15.9-18.87-21.94-15.45-39.88 3.52-3.53 17.17-16.52 33.05-23.67l.02-.01c4.73 2.93 8.81 4.82 11.11 4.34 8.75-1.88-11.58 10.31-9.97 25.49 1.17 11.03 15.81 31.42 19.71 36.79 7.12 9.8 18.44 6.2 18.44 6.2S3014.47 1671.45 3010.7 1670.93z" opacity=".1" class="color231f20 svgShape"/><path fill="#1f3c66" d="M2970.68,1528.48l-74.46,21.08c-8.19,2.32-12.94,10.83-10.63,19.02l55.33,195.44        c2.32,8.19,10.83,12.94,19.02,10.63l74.46-21.08c8.19-2.32,12.94-10.83,10.63-19.02l-55.33-195.44        C2987.38,1530.92,2978.87,1526.16,2970.68,1528.48z" class="color1f3c66 svgShape"/><path fill="#e5eaf6" d="M3006.12,1592.36c0,0-24.78,23.33-14.83,39.26c0,0,5.86,12.49,7.83,15.86c2.88,4.93,13.4,18.51,13.4,18.51       s9.57,7.49,19.05-0.09c9.48-7.58,7.43-19.26,0.78-21.83c0,0,4.09-14.52-6.93-17.53c0,0,4.84-13.37-9.03-17.03       C3016.38,1609.5,3017.42,1588.03,3006.12,1592.36z" class="colore5eaf6 svgShape"/><path fill="#6f95d5" d="M3009.58,1662.81c0.96,1.07,1.93,2.14,2.94,3.17c-0.74-1.15-1.49-2.29-2.25-3.43       c3.72-1.95,7.32-4.24,10.87-6.84c3.63-2.67,7.18-5.71,10.43-9.21c-3.38,3.27-6.97,6.01-10.62,8.35       c-3.64,2.33-7.37,4.37-11.02,5.95l-0.03,0.01c-0.19,0.08-0.35,0.24-0.49,0.42c-1.16-1.73-2.32-3.46-3.46-5.2       c-1.35-2.14-2.73-4.27-4.08-6.41c3.57-2.22,7.02-4.75,10.39-7.59c3.62-3.06,7.13-6.51,10.29-10.43       c-3.32,3.68-6.89,6.81-10.55,9.53c-3.63,2.68-7.37,5.06-11.07,6.95c-0.43-0.7-0.88-1.39-1.3-2.09c-2.07-3.36-4-6.81-5.84-10.3       c-0.41-0.79-0.77-1.6-1.16-2.4c3.62-2.62,7.04-5.6,10.35-8.89c3.33-3.32,6.5-7.02,9.28-11.15c-2.96,3.91-6.23,7.3-9.64,10.29       c-3.4,2.98-6.95,5.66-10.51,7.86l-0.03,0.02c-0.09,0.06-0.17,0.14-0.25,0.23c-0.2-0.44-0.43-0.86-0.63-1.3       c-0.85-1.79-1.58-3.63-2.21-5.54c0.5,4.06,1.89,7.86,3.43,11.56c1.54,3.71,3.45,7.22,5.5,10.65c2.06,3.42,4.34,6.71,6.77,9.87       l3.77,4.66c0.22,0.24,0.43,0.47,0.64,0.71C3009.14,1662.59,3009.32,1662.79,3009.58,1662.81z" class="color6f95d5 svgShape"/><path fill="#b7c9e4" d="M1851,1527.89c0,0,493.79,183.72,515.14,243.23s-163.41,184.58-180.88,186.04      c-9.39,0.78-206.54-10.75-270.21-113.15C1860.19,1755.77,1851,1527.89,1851,1527.89z" class="colorb7c9e4 svgShape"/><path fill="#6f95d5" d="M2932.45,1504.99l-74.46,21.08c-8.19,2.32-12.94,10.83-10.63,19.02l55.33,195.44     c2.32,8.19,10.83,12.94,19.02,10.63l74.46-21.08c8.19-2.32,12.94-10.83,10.63-19.02l-55.33-195.44     C2949.15,1507.43,2940.63,1502.67,2932.45,1504.99z" class="color6f95d5 svgShape"/></g><g fill="#000000" class="color000 svgShape"><path fill="#e5eaf6" d="M1606.99,1540.69l-416.74-160.01l-57.11-402.54l-49.52,3.65c0,0-103.74,388.73-49.73,525.66     c54.01,136.92,371.37,222.1,371.37,222.1L1606.99,1540.69z" class="colore5eaf6 svgShape"/><path fill="#e5eaf6" d="M1051.31,896.61l0.02,0c0.34,5.17,1.61,12.46,4.56,22.98c0,0,0.02-0.08,0.01-0.22       c1.28,5.3,2.98,10.74,4.96,16.06c3.4,9.22,6.4,15.77,8.77,20.29c0.02,0.02,0.02,0.04,0.02,0.06c3.5,6.65,5.6,8.88,5.6,8.88       s4.65,95.94,9.16,107.66c9.02,10.09,53.28-5.06,53.28-5.06c7.31-9.23-8.92-93.35-0.5-110.37       c9.82-19.85,52.58-48.72,37.54-56.34c-15.07-7.64-36.53,20.63-36.53,20.63s0.06-0.44,0.13-1.26       c0.47-4.96,1.77-23.76-2.86-40.55l0-0.02c-1.31-4.66-3.06-9.18-5.43-13.19c-0.43-0.7-0.85-1.4-1.3-2.08       c-0.8-1.21-1.69-2.37-2.64-3.45c-0.15-0.17-0.31-0.37-0.48-0.54c-0.48-0.54-0.98-1.06-1.5-1.56l-0.06-0.06       c-0.02,0-0.02,0-0.04,0c-1.73-0.91-4.06-1.46-7.24-1.12c-10.25,1.11-10.68,9.28-10.68,9.28s-4.09-6.92-12.23-4.76       c-8.65,2.28-6.65,8.67-6.65,8.67s-6.52-5.73-13.26-3.68c-7.12,2.17-4.66,9.53-4.66,9.53s-4.03-4.73-12.39-2.28       C1049.42,876.3,1051.31,896.61,1051.31,896.61z" class="colore5eaf6 svgShape"/><path fill="#231f20" d="M1078.96 961.67c6 5.05 18.71 4.75 30.28 3.29 8.79-1.11 15.99-6.1 21.13-11.11-.67 1.48-1.39 2.94-2.23 4.37-2.19 3.71-10.82 20.3-22.34 20.71-18 .64-23.31-14.72-26.77-16.54C1079.01 962.15 1078.98 961.91 1078.96 961.67zM1062.43 910.19c2.79 2.57 3.29 29.39 35.35 23.28 17.84-3.39 28.94.53 40.57-13.55.47-4.96 1.77-23.76-2.86-40.55l0-.02c-5.27-1.77-9.33-3.71-10.43-5.79-4.13-7.94-.55 15.5-13.27 23.94-9.24 6.14-34.28 7.87-40.9 8.3-12.09.78-16.54-10.24-16.54-10.24S1059.62 907.62 1062.43 910.19z" opacity=".1" class="color231f20 svgShape"/><rect width="351.45" height="40.98" x="932.89" y="880.19" fill="#6f95d5" transform="rotate(-19.627 1108.748 900.738)" class="color6f95d5 svgShape"/><polygon fill="#4e5054" points="936.22 940.41 949.99 979 896.11 976.47" class="color4e5054 svgShape"/><path fill="#4e5054" d="M1279.05,839.89c3.8,10.66,4.68,20.08,1.97,21.05c-2.71,0.97-7.99-6.89-11.8-17.55       c-3.8-10.66-4.68-20.08-1.97-21.05C1269.96,821.38,1275.24,829.23,1279.05,839.89z" class="color4e5054 svgShape"/><path fill="#e5eaf6" d="M1124.2,872.3c0,0-6.31,29.39-21.26,27.81c0,0-11.22,3.4-15.07,4.04c-5.64,0.93-22.8,1.49-22.8,1.49     s-11.87-2.59-12.08-14.73c-0.21-12.14,10.09-18.01,16.32-14.53c0,0,8.57-12.42,17.92-5.85c0,0,7.2-12.26,18.88-3.91     C1106.11,866.63,1120.33,860.83,1124.2,872.3z" class="colore5eaf6 svgShape"/><path fill="#6f95d5" d="M1069.4,905.88c-1.44-0.06-2.88-0.12-4.32-0.24c1.36-0.17,2.71-0.31,4.07-0.46     c-0.87-4.11-1.41-8.34-1.67-12.73c-0.27-4.5-0.18-9.17,0.44-13.91c-0.36,4.69-0.18,9.2,0.34,13.51     c0.52,4.29,1.34,8.46,2.45,12.28l0.01,0.03c0.06,0.2,0.04,0.42-0.01,0.64c2.07-0.22,4.14-0.42,6.21-0.66     c2.51-0.32,5.03-0.62,7.54-0.95c-0.57-4.17-0.82-8.44-0.79-12.84c0.04-4.74,0.47-9.64,1.47-14.57c-0.72,4.9-0.85,9.65-0.6,14.21     c0.25,4.5,0.81,8.9,1.71,12.96c0.81-0.11,1.63-0.21,2.44-0.34c3.91-0.55,7.8-1.26,11.66-2.07c0.87-0.18,1.72-0.43,2.59-0.64     c-0.29-4.46-0.18-8.99,0.24-13.64c0.43-4.69,1.26-9.49,2.67-14.26c-1.12,4.77-1.64,9.46-1.77,13.99     c-0.13,4.52,0.08,8.97,0.65,13.11l0,0.04c0.01,0.11,0,0.22-0.01,0.33c0.47-0.12,0.94-0.21,1.4-0.35c1.92-0.48,3.81-1.1,5.67-1.83     c-3.44,2.2-7.26,3.56-11.09,4.73c-3.83,1.18-7.76,1.95-11.71,2.56c-3.95,0.59-7.93,0.94-11.92,1.09l-5.99,0.07     c-0.32-0.02-0.64-0.03-0.96-0.04C1069.85,906.08,1069.58,906.07,1069.4,905.88z" class="color6f95d5 svgShape"/><path fill="#b7c9e4" d="M1825.79,1571.93l-310.24-82.24c0,0-156.92,224.35-146.89,238.73c4.67,6.71,176.41,123.15,280.52,109.46    C1768.41,1822.21,1825.79,1571.93,1825.79,1571.93z" class="colorb7c9e4 svgShape"/></g><g fill="#000000" class="color000 svgShape"><path fill="#febea5" d="M1448.75,1878.82l-127.52,236.5l-394.16-294.46l-41.73,57.08c0,0,268.96,504.02,438.21,471.56    c169.26-32.46,308.79-354.89,308.79-354.89L1448.75,1878.82z" class="colorfebea5 svgShape"/><path fill="#1f3c66" d="M1694.99,1566.65c0,0-239.29,224.96-306.52,340.89c0,0,65.94,148.39,204.68,134.48    C1731.89,2028.11,1694.99,1566.65,1694.99,1566.65z" class="color1f3c66 svgShape"/><path fill="#febea5" d="M834.74,1790.08c1.33,6.31,3.33,12.22,5.6,17.56c6.98,16.44,16.58,27.38,16.58,27.38l74.62,112.74     c25.2,5.96,32.24-75.6,38.24-76.76c0,0-31.03-32.8-43.09-43.27c0.09-0.18,0.27-0.36,0.4-0.49c4.71-2.53,9.47-9.82,13.16-18.71     c2.53-6.13,4.58-13.02,5.82-19.64c3.02-16.18,44.31-34.31,39.56-43.29c-4.8-8.98-31.6-4.93-40,5.87     c-8.4,10.76-17.96,3.11-17.96-9.91c0-20.09,20.27-113.2,6.49-115.34c-13.78-2.13-33.51,90.18-33.51,90.18s4.8-108.4-9.6-103.47     c-14.36,4.93-16.18,104.67-16.18,104.67s-2.98-79.07-16.76-82.05c-13.78-3.02-12.53,88.05-12.53,88.05s-9.64-55.74-22.22-57.51     C810.79,1664.3,829.37,1764.31,834.74,1790.08z" class="colorfebea5 svgShape"/><path fill="#231f20" d="M910.49,1838.76c-7.78,5.17-17.63,6-26.69,4.7c-8.98-1.28-18.09-4.83-24.68-11.22     c-1.96-1.9-3.49-4.02-4.84-6.27c1.1,1,2.21,1.94,3.35,2.73c13.96,9.78,30.36,0.53,30.36,0.53c3.26,2.28,18.78,3.04,31.77,0.35     C916.94,1832.91,914.17,1836.32,910.49,1838.76z" opacity=".1" class="color231f20 svgShape"/><path fill="#ffffff" d="M834.74,1790.08c1.33,6.31,3.33,12.22,5.6,17.56c4.44,7.69,10.53,16.36,17.29,21.07     c13.96,9.78,30.36,0.53,30.36,0.53c3.87,2.71,25.02,3.29,38.71-1.51c0.09-0.18,0.27-0.36,0.4-0.49     c4.71-2.53,9.47-9.82,13.16-18.71c2.53-6.13,4.58-13.02,5.82-19.64c3.02-16.18,44.31-34.31,39.56-43.29     c-4.8-8.98-31.6-4.93-40,5.87c-8.4,10.76-17.96,3.11-17.96-9.91c0-20.09,20.27-113.2,6.49-115.34     c-13.78-2.13-33.51,90.18-33.51,90.18s4.8-108.4-9.6-103.47c-14.36,4.93-16.18,104.67-16.18,104.67s-2.98-79.07-16.76-82.05     c-13.78-3.02-12.53,88.05-12.53,88.05s-9.64-55.74-22.22-57.51C810.79,1664.3,829.37,1764.31,834.74,1790.08z" opacity=".2" class="colorfff svgShape"/><path fill="#fea783" d="M839.34,1728.2c5.43-2.03,10.88-3.95,16.4-5.55c5.51-1.58,11.1-3.03,16.74-3.43     c5.69-0.51,11.47-0.51,17.21-0.4c5.75,0.16,11.5,0.55,17.21,1.57c-5.5-1.9-11.32-2.74-17.11-3.25     c-5.82-0.51-11.63-0.45-17.48-0.12c-5.9,0.55-11.59,2.08-17.09,3.99C849.72,1722.97,844.38,1725.31,839.34,1728.2z" opacity=".5" class="colorfea783 svgShape"/></g><path fill="#274675" d="M1807.93,1521.75c0,0,238.04-3.09,395.71,361.7c157.66,364.79,86.56,766.68,86.56,766.68h-772.87   C1517.34,2650.13,1433.87,1531.02,1807.93,1521.75z" class="color274675 svgShape"/><g fill="#000000" class="color000 svgShape"><path fill="#febea5" d="M1837.67,1423.63l44.43,135.73c0,0-3.31,71.63-74.13,108.18c-70.82,36.55-60.04-63.97-60.04-63.97v-132.51    L1837.67,1423.63z" class="colorfebea5 svgShape"/><path fill="#fea783" d="M1760.79,1591.16c3.74-6.31,4.44-13.08,3.54-20.28c-0.94-7.48-2.88-15.03-1.25-22.57    c2.9-13.38,16.46-19.82,27.79-24.81c11.59-5.11,23.53-10.24,34.31-16.93c10.37-6.44,18.65-15.28,22.68-26.96    c1.68-4.87,2.67-10.01,3.15-15.24l-13.34-40.74l-89.74,47.44v132.51c0,0-0.01,0.09-0.01,0.13    C1753.05,1600.79,1757.5,1596.7,1760.79,1591.16z" opacity=".5" class="colorfea783 svgShape"/><path fill="#2e2e2e" d="M1872.97,1363.01c0,0,97.7-81.87,57.41-191.64c-40.28-109.77-81.92-197.85-170.03-193.22     c-88.11,4.64-52.55,43.28-52.55,43.28s-35.55-51.01-97.38-26.28c-61.83,24.73-17,83.47-17,83.47s-75.44,55.65,25.66,61.83     C1720.17,1146.63,1759.91,1432.54,1872.97,1363.01z" class="color2e2e2e svgShape"/><path fill="#febea5" d="M1621.24,1211.55c0,0-27.82,289.05,115.93,282.87c143.75-6.18,137.57-159.21,137.57-159.21     s18.55,17.78,34.01,8.5c15.46-9.27,46.37-85.79,20.09-95.06c-26.28-9.27-36.32-4.64-36.32-4.64s63.38-125.98-41.73-144.53     C1745.67,1080.94,1618.11,1074.21,1621.24,1211.55z" class="colorfebea5 svgShape"/><path fill="#2e2e2e" d="M1856.19,1213.1c0,0-41.73,81.92,0,74.2c41.73-7.73,41.31-54.62,41.31-54.62s85.43-38.12,52.97-95.31     c0,0,13.91-55.65-32.46-71.1c-46.37-15.46-80.38,12.37-80.38,12.37s4.64-46.37-66.47-43.28c-71.1,3.09-68.01,38.64-68.01,38.64     s-92.74-36.87-100.47,15.57c-7.73,52.44,22.29,80.79,22.29,80.79s82.01,34.75,194.12-31.44     C1819.09,1138.9,1798.36,1202.64,1856.19,1213.1z" class="color2e2e2e svgShape"/><path fill="#2e2e2e" d="M1732.91 1217.37c4.72 6.41 30.43 5.8 44.92 15.36 14.49 9.56 18.26-14.78 0-19.13C1759.58 1209.25 1728.86 1211.86 1732.91 1217.37zM1624.73 1209.54c4.72 6.41 30.43 5.8 44.92 15.36 14.49 9.56 18.26-14.78 0-19.13C1651.39 1201.43 1620.67 1204.03 1624.73 1209.54zM1770.38 1265.78c0 8.65-7.01 15.66-15.66 15.66-8.65 0-15.66-7.01-15.66-15.66s7.01-15.66 15.66-15.66C1763.37 1250.12 1770.38 1257.13 1770.38 1265.78zM1667.2 1261.14c0 8.65-7.01 15.66-15.66 15.66-8.65 0-15.66-7.01-15.66-15.66s7.01-15.66 15.66-15.66C1660.19 1245.48 1667.2 1252.49 1667.2 1261.14zM1718.59 1361.53c1.15 1.37 3.2 1.56 4.58.41 1.38-1.15 1.56-3.2.41-4.58-.42-.52-10.73-12.36-33.21 3.62-.79.56-1.3.79-1.44.94-3.76-6.29 7.67-51.16 20.66-89.87.57-1.7-.35-3.55-2.05-4.12-1.68-.57-3.55.34-4.12 2.05-8.96 26.7-28.67 89.63-18.27 97.34.75.55 1.74 1.03 3 1.1 1.57.1 3.55-.42 5.98-2.15C1711.42 1354 1718.34 1361.26 1718.59 1361.53zM1768.51 1360.04c-1.5-.99-3.5-.56-4.49.93-.99 1.5-.57 3.51.92 4.5.06.04 3.6 2.45 6.16 6.59-.1-.11-.15-.24-.26-.33-1.36-1.16-3.42-1-4.58.37-24.44 28.77-64.03 18.16-64.42 18.05-1.73-.51-3.53.53-4.01 2.26-.48 1.73.52 3.52 2.25 4.01.63.18 6.3 1.71 14.57 2.22 15.14.92 38.99-1.63 56.56-22.32.69-.81.86-1.84.64-2.8 1.16 2.28 1.99 4.95 1.8 8-.11 1.79 1.26 3.33 3.05 3.44 1.79.11 3.33-1.26 3.44-3.05C1780.97 1368.36 1769.01 1360.37 1768.51 1360.04z" class="color2e2e2e svgShape"/><ellipse cx="1763" cy="1321.41" fill="#fea783" opacity=".5" rx="27.16" ry="20.29" class="colorfea783 svgShape"/><path fill="#fea783" d="M1678.7,1320.3c0,11.2-12.16,20.29-27.16,20.29c-15,0-27.16-9.08-27.16-20.29     c0-11.2,12.16-20.29,27.16-20.29C1666.54,1300.01,1678.7,1309.09,1678.7,1320.3z" opacity=".5" class="colorfea783 svgShape"/><path fill="#2e2e2e" d="M1913.55,1316.59c-0.46,0-0.92-0.11-1.35-0.34c-1.37-0.75-1.88-2.47-1.14-3.84     c0.09-0.15,8.51-15.86,9.47-32.62c0.86-15.08-11.89-18.16-12.44-18.29c-1.52-0.35-2.48-1.86-2.13-3.39     c0.35-1.53,1.86-2.48,3.39-2.13c6.22,1.42,17.73,8.28,16.82,24.12c-1.03,18.06-9.77,34.32-10.14,35.01     C1915.53,1316.06,1914.55,1316.59,1913.55,1316.59z" class="color2e2e2e svgShape"/></g><path fill="#febea5" d="M2271.85,1902.91c0,0,115.93,85.79,185.49,331.56c69.56,245.77-757.9,294.46-757.9,294.46l-10.01-78.83   l546.49-220.82l-154.19-224.35L2271.85,1902.91z" class="colorfebea5 svgShape"/><path fill="#fea783" d="M1812.24,2464.43c19.49-35.19,56.02-54.07,89.12-74.15c8.82-5.35,17.3-11.21,26.4-16.11   c9.32-5.02,19-9.33,28.93-12.97c20.7-7.6,42.13-11.74,63.62-16.34c24.03-5.14,47.96-10.78,72.15-15.18   c11.83-2.15,23.72-4.01,35.68-5.37c9.03-1.02,18.11-1.52,27.15-2.5c48.99-5.32,124.73-25.99,119.51-89.04   c-2.63-31.74-22.53-59.05-36.59-86.63c-12.78-25.07-25.99-56.74-10.06-83.45c8.96-15.02,24.88-23.44,38.78-33.16   c13.85-9.68,27.47-20.75,34.21-36.72c10.18-24.1,4.14-47.02-6.26-68.79c-14.2-14.57-23.03-21.12-23.03-21.12l-190.12,102.02   l154.19,224.35l-546.49,220.82l10.01,78.83c0,0,39.62-2.33,100.78-8.55C1799.06,2501.24,1802.97,2481.16,1812.24,2464.43z" opacity=".5" class="colorfea783 svgShape"/><path fill="#1f3c66" d="M1972.98,1582.01c0,0,189.89,146.6,352.2,344.08c0,0-151.44,133.71-231.86,136.8   C2023.76,2035.07,1814.58,1658.89,1972.98,1582.01z" class="color1f3c66 svgShape"/><g fill="#000000" class="color000 svgShape"><rect width="494.63" height="38.64" x="1585.55" y="2572.21" fill="#4e5054" class="color4e5054 svgShape"/><polygon fill="#2e2e2e" points="1859.91 2610.85 1585.55 2610.85 1585.55 2572.21 1836.73 2572.21" opacity=".5" class="color2e2e2e svgShape"/><path fill="#1e1f21" d="M2111.23,2598.49h-567.28v51.64h618.92C2162.88,2621.61,2139.76,2598.49,2111.23,2598.49z" class="color1e1f21 svgShape"/><path fill="#2e2e2e" d="M1622.95,2136.77H852.91c-19.04,0-30.46,15.44-25.49,34.48l115.83,444.4c4.96,19.04,24.42,34.48,43.47,34.48    h770.04c19.04,0,30.46-15.44,25.49-34.48l-115.83-444.4C1661.46,2152.2,1641.99,2136.77,1622.95,2136.77z" class="color2e2e2e svgShape"/><path fill="#2e2e2e" d="M1303.89,2311.9c-5.56-29.61-34.06-53.61-63.67-53.61s-49.1,24-43.55,53.61    c5.56,29.61,34.06,53.61,63.67,53.61C1289.95,2365.51,1309.45,2341.51,1303.89,2311.9z" class="color2e2e2e svgShape"/><path fill="#ffffff" d="M1290.18,2301.71c-5.34-28.44-32.73-51.5-61.17-51.5c-28.44,0-47.17,23.06-41.83,51.5    c5.34,28.44,32.73,51.5,61.17,51.5C1276.79,2353.21,1295.52,2330.15,1290.18,2301.71z" class="colorfff svgShape"/></g><g fill="#000000" class="color000 svgShape"><path fill="#6f95d5" d="M2114.72 872.5v14.57l-34.93 14.37 34.93 14.37v14.78l-50.02-21.91v-14.26L2114.72 872.5zM2170.81 872.15l-45.78 95.7h-13.33l45.79-95.7H2170.81zM2169.67 969.27V954.7l34.93-14.37-34.93-14.37v-14.78l50.02 21.91v14.26L2169.67 969.27z" class="color6f95d5 svgShape"/></g><path fill="#1f3c66" d="M3421.56,2661.01H378.44c-6.01,0-10.89-4.87-10.89-10.89s4.87-10.89,10.89-10.89h3043.12   c6.01,0,10.89,4.87,10.89,10.89S3427.57,2661.01,3421.56,2661.01z" class="color1f3c66 svgShape"/><g fill="#000000" class="color000 svgShape"><circle cx="1368.12" cy="1238" r="84.59" fill="#e5eaf6" class="colore5eaf6 svgShape"/><path fill="#b7c9e4" d="M1418.94,1215.66c-0.43,0.18-0.77,0.52-0.95,0.95c-0.18,0.43-0.18,0.91,0,1.35     c2.64,6.35,3.98,13.1,3.98,20.05c0,28.83-23.46,52.29-52.29,52.29c-28.83,0-52.29-23.46-52.29-52.29     c0-28.83,23.46-52.29,52.29-52.29c12.47,0,24.54,4.46,33.99,12.56c0.36,0.31,0.81,0.44,1.29,0.42c0.47-0.04,0.9-0.26,1.19-0.61     c0.31-0.36,0.46-0.81,0.42-1.28c-0.04-0.47-0.25-0.9-0.61-1.2c-10.09-8.64-22.98-13.4-36.28-13.4c-30.77,0-55.8,25.03-55.8,55.81     c0,30.77,25.03,55.8,55.8,55.8c30.77,0,55.81-25.03,55.81-55.8c0-7.41-1.43-14.61-4.25-21.4     C1420.86,1215.72,1419.84,1215.29,1418.94,1215.66z" class="colorb7c9e4 svgShape"/><path fill="#b7c9e4" d="M1428.91,1188.26c-0.36-0.31-0.82-0.45-1.28-0.41c-0.47,0.04-0.9,0.26-1.2,0.62l-57.75,68.61     c-0.29,0.35-0.7,0.55-1.14,0.57c-0.47,0.04-0.9-0.14-1.22-0.46l-35.72-34.97c-0.69-0.68-1.8-0.67-2.49,0.03     c-0.33,0.34-0.51,0.78-0.5,1.25c0,0.47,0.19,0.91,0.53,1.24l35.72,34.97c0.95,0.93,2.26,1.46,3.59,1.46l0.24-0.01     c1.42-0.07,2.76-0.73,3.68-1.82l57.76-68.61C1429.74,1189.99,1429.65,1188.88,1428.91,1188.26z" class="colorb7c9e4 svgShape"/></g><g fill="#000000" class="color000 svgShape"><path fill="#e5eaf6" d="M2956.54,1197h375.69c21.03,0,40.11-8.5,53.9-22.3c13.79-13.91,22.3-32.98,22.3-54.02     c0-42.06-34.13-76.2-76.2-76.2h-375.69c-21.15,0-40.22,8.5-54.01,22.3c-13.79,13.79-22.3,32.87-22.3,53.9     C2880.23,1162.86,2914.36,1197,2956.54,1197z" class="colore5eaf6 svgShape"/><path fill="#6f95d5" d="M3068.37 1087.75v69.27h-16.03v-28.4h-31.47v28.4h-16.03v-69.27h16.03v27.31h31.47v-27.31H3068.37zM3099.15 1100.82h-22.17v-13.06h60.37v13.06h-22.17v56.21h-16.03V1100.82zM3209 1157.03l-.1-41.57-20.39 34.24h-7.23l-20.29-33.35v40.67h-15.04v-69.27h13.26l25.93 43.05 25.53-43.05h13.17l.2 69.27H3209zM3240.47 1087.75h16.03v56.21h34.73v13.06h-50.77V1087.75z" class="color6f95d5 svgShape"/></g><g fill="#000000" class="color000 svgShape"><path fill="#6f95d5" d="M1628.11 760.5c5.54 2.51 9.8 6.06 12.79 10.67 2.99 4.61 4.49 10.06 4.49 16.37 0 6.23-1.5 11.66-4.49 16.31-2.99 4.65-7.25 8.2-12.79 10.67-5.54 2.46-12.06 3.7-19.58 3.7h-17.1v23.4h-19.64v-84.87h36.74C1616.05 756.74 1622.57 758 1628.11 760.5zM1620.89 798.39c3.07-2.54 4.61-6.16 4.61-10.85 0-4.77-1.54-8.42-4.61-10.97-3.07-2.55-7.56-3.82-13.46-3.82h-16v29.46h16C1613.34 802.21 1617.82 800.94 1620.89 798.39zM1737.17 756.74v84.87h-19.64v-34.8h-38.56v34.8h-19.64v-84.87h19.64v33.46h38.56v-33.46H1737.17zM1813.61 760.5c5.54 2.51 9.8 6.06 12.79 10.67 2.99 4.61 4.49 10.06 4.49 16.37 0 6.23-1.5 11.66-4.49 16.31-2.99 4.65-7.25 8.2-12.79 10.67-5.54 2.46-12.06 3.7-19.58 3.7h-17.1v23.4h-19.64v-84.87h36.74C1801.55 756.74 1808.07 758 1813.61 760.5zM1806.39 798.39c3.07-2.54 4.61-6.16 4.61-10.85 0-4.77-1.54-8.42-4.61-10.97-3.07-2.55-7.56-3.82-13.46-3.82h-16v29.46h16C1798.84 802.21 1803.32 800.94 1806.39 798.39z" class="color6f95d5 svgShape"/></g><g opacity=".8" fill="#000000" class="color000 svgShape"><path fill="#e5eaf6" d="M488.77,1762.4h547.45c24.45,0,46.62-9.89,62.65-25.92c16.03-16.16,25.92-38.34,25.92-62.79      c0-48.89-39.68-88.57-88.57-88.57H488.77c-24.58,0-46.76,9.89-62.79,25.92c-16.03,16.03-25.92,38.21-25.92,62.65      C400.07,1722.72,439.75,1762.4,488.77,1762.4z" class="colore5eaf6 svgShape"/><path fill="#6f95d5" d="M528.42 1712.31c-7.05-3.79-12.58-9.04-16.62-15.76-4.03-6.72-6.05-14.32-6.05-22.79 0-8.47 2.02-16.06 6.05-22.78 4.03-6.72 9.57-11.97 16.62-15.76 7.04-3.79 14.96-5.68 23.76-5.68 7.41 0 14.11 1.3 20.1 3.91 5.99 2.61 11.01 6.35 15.09 11.24l-12.71 11.73c-5.78-6.68-12.95-10.02-21.5-10.02-5.3 0-10.02 1.16-14.17 3.48-4.15 2.32-7.39 5.56-9.71 9.72-2.32 4.15-3.48 8.88-3.48 14.17 0 5.3 1.16 10.02 3.48 14.17 2.32 4.15 5.56 7.39 9.71 9.71 4.15 2.32 8.88 3.48 14.17 3.48 8.55 0 15.72-3.38 21.5-10.14l12.71 11.73c-4.07 4.97-9.12 8.76-15.15 11.36-6.03 2.61-12.75 3.91-20.16 3.91C543.34 1717.99 535.46 1716.09 528.42 1712.31zM616.26 1712.24c-7.13-3.83-12.71-9.1-16.74-15.82-4.03-6.72-6.05-14.27-6.05-22.67 0-8.39 2.02-15.94 6.05-22.66 4.03-6.72 9.61-11.99 16.74-15.82 7.13-3.83 15.13-5.74 24.01-5.74 8.88 0 16.86 1.92 23.94 5.74 7.09 3.83 12.67 9.1 16.74 15.82 4.07 6.72 6.11 14.28 6.11 22.66 0 8.39-2.04 15.95-6.11 22.67-4.07 6.72-9.65 11.99-16.74 15.82-7.09 3.83-15.07 5.74-23.94 5.74C631.38 1717.99 623.38 1716.07 616.26 1712.24zM653.94 1697.64c4.07-2.32 7.27-5.56 9.59-9.71 2.32-4.15 3.48-8.88 3.48-14.17 0-5.29-1.16-10.02-3.48-14.17-2.32-4.15-5.52-7.39-9.59-9.72-4.07-2.32-8.63-3.48-13.68-3.48-5.05 0-9.61 1.16-13.68 3.48-4.07 2.32-7.27 5.56-9.59 9.72-2.32 4.15-3.48 8.88-3.48 14.17 0 5.3 1.16 10.02 3.48 14.17 2.32 4.15 5.52 7.39 9.59 9.71 4.07 2.32 8.63 3.48 13.68 3.48C645.31 1701.13 649.87 1699.97 653.94 1697.64zM701.96 1631h38.85c9.28 0 17.49 1.77 24.62 5.31 7.13 3.54 12.66 8.53 16.61 14.97 3.95 6.43 5.93 13.93 5.93 22.48 0 8.55-1.98 16.05-5.93 22.48-3.95 6.44-9.49 11.42-16.61 14.97-7.13 3.54-15.34 5.31-24.62 5.31h-38.85V1631zM739.83 1700.27c8.55 0 15.37-2.38 20.47-7.15 5.09-4.76 7.64-11.22 7.64-19.36 0-8.14-2.55-14.6-7.64-19.36-5.09-4.76-11.91-7.15-20.47-7.15h-18.08v53.02H739.83zM802.87 1631h19.79v85.52h-19.79V1631zM921.38 1631v85.52h-16.25l-42.64-51.92v51.92h-19.55V1631h16.37l42.52 51.92V1631H921.38zM999.45 1672.42h18.08v34.7c-4.65 3.5-10.02 6.19-16.13 8.06-6.11 1.87-12.26 2.81-18.45 2.81-8.88 0-16.86-1.89-23.95-5.68-7.09-3.79-12.64-9.04-16.68-15.76-4.03-6.72-6.05-14.32-6.05-22.79 0-8.47 2.02-16.06 6.05-22.78 4.03-6.72 9.63-11.97 16.8-15.76 7.17-3.79 15.23-5.68 24.19-5.68 7.49 0 14.29 1.26 20.4 3.79 6.11 2.53 11.24 6.19 15.39 11l-12.71 11.73c-6.11-6.43-13.48-9.65-22.11-9.65-5.46 0-10.31 1.14-14.54 3.42-4.23 2.28-7.53 5.5-9.89 9.65-2.36 4.15-3.54 8.92-3.54 14.29 0 5.3 1.18 10.02 3.54 14.17 2.36 4.15 5.64 7.39 9.83 9.71 4.19 2.32 8.98 3.48 14.35 3.48 5.7 0 10.83-1.22 15.39-3.66V1672.42z" class="color6f95d5 svgShape"/></g><g fill="#000000" class="color000 svgShape"><path fill="#6f95d5" d="M2783.9 1374.79c-1.06 1.65-2.74 2.84-5.05 3.56 2.31.73 3.99 1.92 5.05 3.56 1.06 1.65 1.58 4.16 1.58 7.52v15.84c0 2.38.61 4.19 1.83 5.44 1.22 1.25 3.02 1.88 5.39 1.88h1.78v12.07h-5.74c-6.14 0-10.79-1.52-13.95-4.55-3.17-3.04-4.75-7.42-4.75-13.16v-17.91c0-1.52-.38-2.67-1.14-3.46-.76-.79-1.83-1.19-3.22-1.19h-3.27v-12.07h3.27c1.39 0 2.46-.4 3.22-1.19.76-.79 1.14-1.95 1.14-3.46v-17.91c0-5.74 1.58-10.13 4.75-13.16 3.17-3.03 7.82-4.55 13.95-4.55h5.74v12.08h-1.78c-2.38 0-4.17.63-5.39 1.88-1.22 1.26-1.83 3.07-1.83 5.44v15.83C2785.49 1370.63 2784.96 1373.14 2783.9 1374.79zM2885.54 1372.31v12.07h-3.27c-1.39 0-2.46.4-3.22 1.19-.76.79-1.14 1.95-1.14 3.46v17.91c0 5.74-1.58 10.13-4.75 13.16-3.17 3.03-7.82 4.55-13.95 4.55h-5.74v-12.07h1.78c2.38 0 4.17-.63 5.39-1.88 1.22-1.25 1.83-3.07 1.83-5.44v-15.84c0-3.37.53-5.87 1.58-7.52 1.05-1.65 2.74-2.84 5.05-3.56-2.31-.73-3.99-1.91-5.05-3.56-1.06-1.65-1.58-4.16-1.58-7.52v-15.83c0-2.37-.61-4.19-1.83-5.44-1.22-1.25-3.02-1.88-5.39-1.88h-1.78v-12.08h5.74c6.14 0 10.79 1.52 13.95 4.55 3.17 3.03 4.75 7.42 4.75 13.16v17.91c0 1.52.38 2.67 1.14 3.46.76.79 1.83 1.19 3.22 1.19H2885.54z" class="color6f95d5 svgShape"/></g><g fill="#000000" class="color000 svgShape"><circle cx="2120.7" cy="527.47" r="96.86" fill="#ffffff" transform="rotate(-45.001 2120.706 527.502)" class="colorfff svgShape"/><path fill="#b7c9e4" d="M2178.88,501.89c-0.5,0.21-0.89,0.59-1.09,1.09c-0.21,0.5-0.21,1.05,0,1.55c3.03,7.28,4.56,15,4.56,22.95     c0,33.01-26.86,59.87-59.87,59.87c-33.01,0-59.87-26.86-59.87-59.87c0-33.01,26.86-59.87,59.87-59.87     c14.27,0,28.1,5.11,38.92,14.38c0.41,0.35,0.93,0.51,1.47,0.48c0.54-0.04,1.03-0.29,1.37-0.7c0.35-0.41,0.52-0.93,0.48-1.46     c-0.04-0.54-0.29-1.03-0.7-1.38c-11.56-9.9-26.31-15.35-41.54-15.35c-35.23,0-63.9,28.66-63.9,63.9c0,35.23,28.66,63.9,63.9,63.9     s63.9-28.66,63.9-63.9c0-8.49-1.64-16.73-4.87-24.5C2181.09,501.96,2179.92,501.47,2178.88,501.89z" class="colorb7c9e4 svgShape"/><path fill="#b7c9e4" d="M2190.3,470.52c-0.41-0.35-0.94-0.52-1.47-0.47c-0.54,0.05-1.03,0.3-1.38,0.71l-66.13,78.56     c-0.33,0.4-0.81,0.63-1.31,0.65c-0.54,0.05-1.03-0.17-1.4-0.52l-40.9-40.04c-0.79-0.78-2.07-0.76-2.85,0.03     c-0.38,0.39-0.58,0.89-0.57,1.43c0,0.54,0.22,1.04,0.6,1.42l40.9,40.04c1.09,1.07,2.59,1.68,4.11,1.68l0.28-0.01     c1.63-0.08,3.16-0.84,4.21-2.08l66.13-78.56C2191.25,472.5,2191.14,471.23,2190.3,470.52z" class="colorb7c9e4 svgShape"/></g><g fill="#000000" class="color000 svgShape"><path fill="#6f95d5" d="M2419.03 722.13v7.92c0 9.74-6.26 15.05-19.02 15.05h-6.03v22.88h-12.76v-60.88H2400C2412.76 707.09 2419.03 712.39 2419.03 722.13zM2393.97 715.78v20.62h6.03c4.06 0 6.26-1.39 6.26-5.74v-9.13c0-4.35-2.2-5.74-6.26-5.74H2393.97zM2460.9 767.97c-.69-1.57-1.16-2.52-1.16-7.48v-9.57c0-5.65-2.55-7.74-8.35-7.74h-4.41v24.79h-12.76v-60.88h19.26c13.22 0 18.91 4.61 18.91 14v4.78c0 6.26-2.67 10.35-8.35 12.35 6.38 2 8.47 6.61 8.47 12.96v9.39c0 2.96.12 5.13 1.39 7.39H2460.9zM2446.98 715.78v18.7h4.99c4.76 0 7.66-1.56 7.66-6.43v-6c0-4.35-1.97-6.26-6.5-6.26H2446.98zM2488.51 721.7c0-9.74 6.84-15.31 19.37-15.31 12.53 0 19.37 5.57 19.37 15.31v31.66c0 9.74-6.84 15.31-19.37 15.31-12.53 0-19.37-5.57-19.37-15.31V721.7zM2501.27 753.97c0 4.35 2.55 6 6.61 6 4.06 0 6.61-1.65 6.61-6v-32.88c0-4.35-2.55-6-6.61-6-4.06 0-6.61 1.65-6.61 6V753.97zM2563.33 734.05h17.87v19.31c0 9.74-6.5 15.31-19.03 15.31-12.53 0-19.02-5.57-19.02-15.31V721.7c0-9.74 6.5-15.31 19.02-15.31 12.53 0 19.03 5.57 19.03 15.31v5.91h-12.07v-6.52c0-4.35-2.55-6-6.61-6-4.06 0-6.61 1.65-6.61 6v32.88c0 4.35 2.55 5.92 6.61 5.92 4.06 0 6.61-1.57 6.61-5.92v-11.22h-5.8V734.05zM2624.82 767.97c-.7-1.57-1.16-2.52-1.16-7.48v-9.57c0-5.65-2.55-7.74-8.35-7.74h-4.41v24.79h-12.76v-60.88h19.26c13.22 0 18.91 4.61 18.91 14v4.78c0 6.26-2.67 10.35-8.35 12.35 6.38 2 8.47 6.61 8.47 12.96v9.39c0 2.96.12 5.13 1.39 7.39H2624.82zM2610.9 715.78v18.7h4.99c4.76 0 7.66-1.56 7.66-6.43v-6c0-4.35-1.97-6.26-6.5-6.26H2610.9zM2694.76 767.97h-12.88l-2.2-11.05h-15.66l-2.2 11.05h-11.72l12.99-60.88h18.68L2694.76 767.97zM2665.65 748.66h12.3l-6.15-30.79L2665.65 748.66zM2736.41 750.31l8.7-43.23h17.75v60.88h-12.07v-43.66l-8.82 43.66h-12.07l-9.51-43.06v43.06h-11.14v-60.88h17.75L2736.41 750.31zM2807.87 750.31l8.7-43.23h17.75v60.88h-12.07v-43.66l-8.82 43.66h-12.07l-9.51-43.06v43.06h-11.14v-60.88h17.75L2807.87 750.31zM2865.05 732.74h17.52v8.7h-17.52v17.83h22.04v8.7h-34.8v-60.88h34.8v8.7h-22.04V732.74zM2930.36 767.97c-.7-1.57-1.16-2.52-1.16-7.48v-9.57c0-5.65-2.55-7.74-8.35-7.74h-4.41v24.79h-12.76v-60.88h19.26c13.22 0 18.91 4.61 18.91 14v4.78c0 6.26-2.67 10.35-8.35 12.35 6.38 2 8.47 6.61 8.47 12.96v9.39c0 2.96.12 5.13 1.39 7.39H2930.36zM2916.44 715.78v18.7h4.99c4.76 0 7.66-1.56 7.66-6.43v-6c0-4.35-1.97-6.26-6.5-6.26H2916.44z" class="color6f95d5 svgShape"/></g></svg>